<svg width="30" height="32" viewBox="0 0 30 32" fill="none" xmlns="http://www.w3.org/2000/svg">
<g clip-path="url(#clip0_1262_281)">
<path d="M26.8825 20.978C26.6916 20.8838 26.4689 20.7896 26.2781 20.6954H26.4371C26.4371 20.6954 25.101 20.1301 25.0055 15.9221C24.8783 11.7454 26.2781 11.0232 26.2781 11.0232C27.3279 10.4893 28.2187 9.67282 28.7913 8.57371C30.3184 5.716 29.2367 2.19883 26.3417 0.660067C23.1922 -0.81589 19.6291 0.251823 18.102 3.10953C17.4658 4.27145 17.3067 5.55899 17.4976 6.78372L17.4339 6.68951C17.4339 6.68951 17.7839 8.19687 14.1572 10.4265C10.5623 12.6561 8.90796 11.5256 8.90796 11.5256L9.0034 11.6826C8.90796 11.6198 8.81252 11.557 8.68527 11.4942C5.82207 9.95545 2.22716 11.0546 0.700118 13.9123C-0.826924 16.77 0.254731 20.2872 3.14975 21.8259C5.31306 22.9564 7.82631 22.6424 9.63967 21.2293L9.60786 21.2921C9.60786 21.2921 10.9122 20.2243 14.698 22.2342C17.6885 23.8043 18.1338 25.3745 18.1975 25.9398C18.1338 28.1066 19.2473 30.242 21.3152 31.3097C24.2102 32.8171 27.7733 31.7494 29.3321 28.8917C30.8592 26.034 29.7457 22.5168 26.8825 20.978ZM20.2017 21.7631C19.7245 21.9201 18.3565 22.1085 15.4933 20.6012C12.3756 18.9368 11.8984 17.5551 11.8348 17.1468C11.8666 16.6444 11.8666 16.1419 11.7712 15.6395L11.803 15.6709C11.803 15.6709 11.5485 14.3205 15.1116 12.1537C18.2929 10.2067 19.7563 10.5835 20.0108 10.6777C20.1699 10.8033 20.3608 10.8976 20.5517 10.9918C20.9016 11.1802 21.2834 11.3372 21.6651 11.4314C22.1105 11.8397 22.9058 13.0016 23.0013 16.1105C23.0967 19.2194 22.1741 20.4128 21.6651 20.821C21.1243 21.0722 20.6153 21.3863 20.2017 21.7631Z" fill="#31B404"/>
<path d="M19.7877 2.54433C18.0698 4.39712 18.0379 7.12921 19.6922 8.69938C18.8651 7.9143 18.8969 6.28132 19.7241 4.74256C19.8195 4.61695 20.1376 4.27151 20.583 4.42853C20.6148 4.42853 20.6466 4.45993 20.6785 4.45993C20.7739 4.49133 20.9011 4.49133 20.9966 4.49133C21.6965 4.45993 22.2055 3.89467 22.1737 3.2038C22.1737 2.88976 22.0464 2.63854 21.8237 2.41871C23.4144 1.3824 25.2278 1.25679 25.9913 1.94766H26.0231C24.337 0.377495 21.5374 0.660125 19.7877 2.54433ZM2.48121 13.5355C0.763287 15.3883 0.731474 18.1204 2.38577 19.6905C1.55862 18.9055 1.59043 17.2725 2.41758 15.7337C2.51302 15.6081 2.83116 15.2627 3.27654 15.4197C3.30836 15.4197 3.34017 15.4511 3.37198 15.4511C3.46742 15.4825 3.59468 15.4825 3.69012 15.4825C4.39001 15.4511 4.89902 14.8858 4.86721 14.195C4.86721 13.8809 4.73996 13.6297 4.51726 13.4099C6.10793 12.3736 7.92129 12.248 8.68481 12.9388H8.71663C7.03052 11.4001 4.23094 11.6513 2.48121 13.5355ZM20.8057 22.8623C19.0878 24.7151 19.056 27.4472 20.7103 29.0173C19.8831 28.2323 19.9149 26.5993 20.7421 25.0605C20.8375 24.9349 21.1557 24.5895 21.601 24.7465C21.6329 24.7465 21.6647 24.7779 21.6965 24.7779C21.7919 24.8093 21.9192 24.8093 22.0146 24.8093C22.7145 24.7779 23.2235 24.2126 23.1917 23.5218C23.1917 23.2077 23.0645 22.9565 22.8418 22.7367C24.4324 21.7004 26.2458 21.5747 27.0093 22.2656H27.0411C25.355 20.6955 22.5554 20.9781 20.8057 22.8623Z" fill="white"/>
</g>
<defs>
<clipPath id="clip0_1262_281">
<rect width="30" height="32" fill="white"/>
</clipPath>
</defs>
</svg>
