<svg width="5" height="10" viewBox="0 0 5 10" fill="none" xmlns="http://www.w3.org/2000/svg">
    <path d="M4.87507 5.21478C4.87512 5.26813 4.86464 5.32097 4.84421 5.37026C4.82378 5.41956 4.79382 5.46432 4.75604 5.502L0.6935 9.56454C0.534757 9.72328 0.2777 9.72328 0.119058 9.56454C-0.0395843 9.40579 -0.0396859 9.14874 0.119058 8.99009L3.89437 5.21478L0.119058 1.43946C-0.0396859 1.28072 -0.0396859 1.02366 0.119058 0.865019C0.277801 0.706377 0.534858 0.706275 0.6935 0.865019L4.75604 4.92756C4.79382 4.96523 4.82378 5.01 4.84421 5.05929C4.86464 5.10858 4.87512 5.16142 4.87507 5.21478Z" fill="#888888"/>
</svg>
