<svg fill="none" height="12" viewbox="0 0 7 12" width="7" xmlns="http://www.w3.org/2000/svg">
  <path d="M0.828447 0.982555C0.668147 0.979582 0.510886 1.02651 0.378427 1.11684C0.245967 1.20716 0.144858 1.33643 0.0890904 1.48675C0.0333229 1.63706 0.0256545 1.801 0.0671467 1.95586C0.108639 2.11073 0.19724 2.24887 0.32069 2.35117L5.04517 6.39572L0.317771 10.4403C0.231406 10.5032 0.15903 10.5834 0.105209 10.6757C0.0513877 10.7681 0.0172914 10.8706 0.00507139 10.9767C-0.00714863 11.0829 0.00277318 11.1905 0.0342104 11.2926C0.0656476 11.3948 0.117918 11.4893 0.187722 11.5702C0.257526 11.6512 0.343349 11.7168 0.439774 11.7628C0.536199 11.8089 0.641133 11.8346 0.747953 11.8381C0.854772 11.8416 0.961158 11.8229 1.0604 11.7832C1.15964 11.7435 1.24957 11.6837 1.32453 11.6075L6.72894 6.9881C6.81393 6.9155 6.88218 6.82534 6.92897 6.72383C6.97577 6.62232 7 6.51187 7 6.40009C7 6.28832 6.97577 6.17787 6.92897 6.07636C6.88218 5.97485 6.81393 5.88469 6.72894 5.81209L1.32453 1.17807C1.18758 1.05615 1.01176 0.986851 0.828447 0.982555Z" fill="#31B404"></path>
</svg>