<svg width="18" height="18" viewBox="0 0 18 18" fill="none" xmlns="http://www.w3.org/2000/svg">
    <path d="M7.87695 0.00589371C6.62185 0.13274 5.6705 0.40646 4.61568 0.943886C3.1169 1.70496 1.80505 2.99011 1.01059 4.47888C0.509886 5.41353 0.199448 6.37155 0.0425601 7.47978C-0.0141867 7.87367 -0.0141867 9.18886 0.0425601 9.58275C0.276223 11.2184 0.917128 12.7105 1.90185 13.9222C2.6696 14.8635 3.64765 15.6413 4.73919 16.1754C5.39345 16.4992 5.78733 16.6427 6.43825 16.8096C7.08583 16.9732 7.57653 17.0433 8.24414 17.0666C9.66614 17.1167 10.978 16.833 12.2832 16.1921C13.2045 15.7414 13.8821 15.2541 14.5764 14.5531C15.2774 13.8421 15.7447 13.1912 16.1687 12.3333C16.7328 11.1984 17.0165 10.0835 17.0632 8.81499C17.1133 7.3763 16.8196 6.04108 16.1687 4.72923C15.1539 2.67967 13.3246 1.10077 11.1716 0.40646C10.3204 0.13274 9.63276 0.0192471 8.69477 0.00255585C8.31757 -0.000782013 7.95039 -0.000782013 7.87695 0.00589371ZM9.33901 1.37115C12.4801 1.73834 14.9803 4.04493 15.6012 7.14597C16.2721 10.5174 14.4162 13.9356 11.215 15.2174C7.77347 16.596 3.86462 15.1539 2.14219 11.866C1.12742 9.93658 1.05065 7.62665 1.93189 5.62716C2.82315 3.60431 4.63237 2.07882 6.7754 1.53806C7.06914 1.46462 7.56651 1.38117 7.92702 1.34445C8.23412 1.31107 8.95514 1.32776 9.33901 1.37115Z" fill="#888888"/>
    <path d="M11.5655 5.6806C11.4921 5.71064 10.7077 6.47172 9.40582 7.77355L7.3596 9.81644L6.50172 8.95856C6.02772 8.49123 5.5871 8.07732 5.52367 8.04394C5.34008 7.95047 5.07304 7.96049 4.88277 8.07398C4.60905 8.23421 4.48554 8.59805 4.60571 8.8918C4.67581 9.06204 6.88893 11.2852 7.07586 11.372C7.24944 11.4521 7.46975 11.4521 7.63999 11.3686C7.73346 11.3252 8.5446 10.5341 10.1035 8.97525C12.2265 6.84892 12.4301 6.63194 12.4668 6.49508C12.6137 5.93763 12.0829 5.45695 11.5655 5.6806Z" fill="#888888"/>
</svg>