<svg width="120" height="96" viewBox="0 0 120 96" fill="none" xmlns="http://www.w3.org/2000/svg">
    <path d="M107.46 33.8757H12.4601V77.8417C12.4601 79.9389 13.8352 81.789 15.8445 82.3922C25.3896 85.2541 52.2318 93.3077 58.5945 95.2172C59.4851 95.4832 60.4351 95.4832 61.3257 95.2172C67.6883 93.3077 94.5306 85.2541 104.076 82.3922C106.085 81.789 107.46 79.9389 107.46 77.8417C107.46 66.8312 107.46 33.8757 107.46 33.8757Z" fill="url(#paint0_linear_543_76)"/>
    <path d="M107.46 33.8757H59.96C59.96 33.8757 59.4993 95.4167 59.96 95.4167C60.4208 95.4167 60.8792 95.3502 61.3257 95.2172C67.6883 93.3077 94.5305 85.2541 104.076 82.3922C106.085 81.789 107.46 79.9389 107.46 77.8417C107.46 66.8312 107.46 33.8757 107.46 33.8757Z" fill="url(#paint1_linear_543_76)"/>
    <path d="M59.9601 49.2871L12.4601 33.8757C12.4601 33.8757 4.13095 46.2257 0.406951 51.7452C-0.0110491 52.3651 -0.113174 53.1417 0.129076 53.8471C0.373701 54.5525 0.931826 55.1011 1.64195 55.3339C10.6646 58.2646 37.3738 66.9429 44.3801 69.2181C45.3847 69.5459 46.4867 69.1682 47.0804 68.2919C50.2653 63.5917 59.9601 49.2871 59.9601 49.2871Z" fill="url(#paint2_linear_543_76)"/>
    <path d="M107.46 33.8757L59.9601 49.2871C59.9601 49.2871 69.6548 63.5917 72.8397 68.2919C73.4335 69.1682 74.5355 69.5459 75.5401 69.2181C82.5463 66.9429 109.256 58.2646 118.278 55.3339C118.988 55.1011 119.546 54.5525 119.791 53.8471C120.033 53.1417 119.931 52.3651 119.513 51.7452C115.789 46.2257 107.46 33.8757 107.46 33.8757Z" fill="url(#paint3_linear_543_76)"/>
    <path d="M48.4627 1.50214C47.8689 0.630514 46.7693 0.252888 45.7647 0.580638C38.7632 2.85351 12.0468 11.5341 3.02415 14.4673C2.31403 14.6976 1.75353 15.2463 1.51128 15.9516C1.26903 16.657 1.37115 17.436 1.78915 18.0535C5.21865 23.1408 12.46 33.8758 12.46 33.8758L59.96 18.4121C59.96 18.4121 51.429 5.86501 48.4627 1.50214Z" fill="url(#paint4_linear_543_76)"/>
    <path d="M118.131 18.0535C118.549 17.436 118.651 16.657 118.409 15.9516C118.167 15.2463 117.606 14.6976 116.896 14.4673C107.873 11.5341 81.157 2.85351 74.1555 0.580638C73.1508 0.252888 72.0512 0.630514 71.4575 1.50214C68.4911 5.86501 59.9601 18.4121 59.9601 18.4121L107.46 33.8758C107.46 33.8758 114.701 23.1408 118.131 18.0535Z" fill="url(#paint5_linear_543_76)"/>
    <path d="M107.46 33.8757L59.9601 18.4121L12.4601 33.8757L59.9601 49.2871L107.46 33.8757Z" fill="url(#paint6_linear_543_76)"/>
    <path d="M59.9601 49.2871V18.4121L12.4601 33.8757L59.9601 49.2871Z" fill="url(#paint7_linear_543_76)"/>
    <defs>
    <linearGradient id="paint0_linear_543_76" x1="12.4601" y1="64.6462" x2="107.46" y2="64.6462" gradientUnits="userSpaceOnUse">
    <stop stop-color="#CADCF0"/>
    <stop offset="1" stop-color="#A4BBDB"/>
    </linearGradient>
    <linearGradient id="paint1_linear_543_76" x1="59.7558" y1="64.6462" x2="107.46" y2="64.6462" gradientUnits="userSpaceOnUse">
    <stop stop-color="#A4BBDB"/>
    <stop offset="1" stop-color="#8DA3BE"/>
    </linearGradient>
    <linearGradient id="paint2_linear_543_76" x1="12.776" y1="33.8567" x2="19.4147" y2="77.7785" gradientUnits="userSpaceOnUse">
    <stop stop-color="#E9F3FC"/>
    <stop offset="1" stop-color="#CADCF0"/>
    </linearGradient>
    <linearGradient id="paint3_linear_543_76" x1="60.1525" y1="49.1256" x2="110.226" y2="77.9246" gradientUnits="userSpaceOnUse">
    <stop stop-color="#E9F3FC"/>
    <stop offset="1" stop-color="#CADCF0"/>
    </linearGradient>
    <linearGradient id="paint4_linear_543_76" x1="6.24228" y1="24.6584" x2="13.4077" y2="-9.11955" gradientUnits="userSpaceOnUse">
    <stop stop-color="#E9F3FC"/>
    <stop offset="1" stop-color="#CADCF0"/>
    </linearGradient>
    <linearGradient id="paint5_linear_543_76" x1="72.6758" y1="0.00826329" x2="75.238" y2="41.7008" gradientUnits="userSpaceOnUse">
    <stop stop-color="#E9F3FC"/>
    <stop offset="1" stop-color="#CADCF0"/>
    </linearGradient>
    <linearGradient id="paint6_linear_543_76" x1="12.4601" y1="33.8496" x2="107.46" y2="33.8496" gradientUnits="userSpaceOnUse">
    <stop stop-color="#CADCF0"/>
    <stop offset="1" stop-color="#A4BBDB"/>
    </linearGradient>
    <linearGradient id="paint7_linear_543_76" x1="64.8241" y1="17.721" x2="65.8477" y2="56.0844" gradientUnits="userSpaceOnUse">
    <stop stop-color="#A4BBDB"/>
    <stop offset="1" stop-color="#8DA3BE"/>
    </linearGradient>
    </defs>
</svg>
