<svg class="register-input-icon" width="18" height="18" viewBox="0 0 18 18" fill="none" xmlns="http://www.w3.org/2000/svg">
    <g clip-path="url(#clip0_96_9)">
        <path d="M9 0.375C4.0275 0.375 0 4.335 0 9.219C0 13.1272 2.5785 16.4415 6.15375 17.61C6.60375 17.6932 6.76875 17.4195 6.76875 17.1847C6.76875 16.9748 6.76125 16.4183 6.7575 15.681C4.254 16.2143 3.726 14.4945 3.726 14.4945C3.3165 13.4738 2.72475 13.2008 2.72475 13.2008C1.9095 12.6525 2.78775 12.6637 2.78775 12.6637C3.6915 12.7253 4.16625 13.575 4.16625 13.575C4.96875 14.9272 6.273 14.5365 6.7875 14.3107C6.8685 13.7385 7.10025 13.3492 7.3575 13.128C5.35875 12.9067 3.258 12.1462 3.258 8.75775C3.258 7.7925 3.60675 7.0035 4.18425 6.38475C4.083 6.16125 3.77925 5.262 4.263 4.044C4.263 4.044 5.01675 3.807 6.738 4.95075C7.458 4.75425 8.223 4.65675 8.988 4.65225C9.753 4.65675 10.518 4.75425 11.238 4.95075C12.948 3.807 13.7017 4.044 13.7017 4.044C14.1855 5.262 13.8818 6.16125 13.7917 6.38475C14.3655 7.0035 14.7142 7.7925 14.7142 8.75775C14.7142 12.1553 12.6105 12.903 10.608 13.1205C10.923 13.386 11.2155 13.9283 11.2155 14.757C11.2155 15.9405 11.2043 16.8915 11.2043 17.1788C11.2043 17.4105 11.3617 17.6873 11.823 17.5988C15.4237 16.4377 18 13.1213 18 9.219C18 4.335 13.9703 0.375 9 0.375Z" fill="#8E8E8E"/>
    </g>
    <defs>
        <clipPath id="clip0_96_9">
            <rect width="18" height="18" fill="white"/>
        </clipPath>
    </defs>
</svg>
