<svg width="35" height="26" viewBox="0 0 35 26" fill="none" xmlns="http://www.w3.org/2000/svg">
    <path d="M34.3828 6.44418C33.2599 4.04698 31.4332 2.31495 28.9364 1.29338C25.5484 -0.0996672 22.02 -0.272637 18.4279 0.325213C14.6484 0.954407 11.24 2.42988 8.13908 4.59143C7.52058 5.02327 6.92129 5.48066 6.31359 5.92179C6.28357 5.88812 6.25475 5.85446 6.22472 5.82195L9.85167 2.54597L9.7616 2.34513C9.43493 2.4264 9.05302 2.42872 8.79001 2.60053C5.93168 4.47882 3.58858 6.82611 1.9012 9.76312C0.682212 11.8782 -0.0587909 14.106 0.00365996 16.5542C0.0295292 18.387 0.756885 20.1455 2.04532 21.4903C2.93284 22.4364 4.01372 23.1387 5.14144 23.812C7.39327 25.1482 9.82525 25.8296 12.4374 25.9666C16.66 26.1895 20.6413 25.2921 24.3751 23.4127C25.6662 22.766 26.9022 22.0215 28.0717 21.1861C29.4879 20.1586 30.7312 18.9255 31.7575 17.5305C33.3188 15.4491 34.7191 13.3235 34.9461 10.65C35.0722 9.19545 35.0121 7.78847 34.3828 6.44418ZM31.3251 10.1009C31.1779 11.5537 30.748 12.9665 30.0581 14.265C28.1233 17.9275 24.9828 20.2655 21.1036 21.6946C18.2501 22.7487 15.2789 22.8798 12.3593 21.9268C10.4786 21.3115 8.9017 20.2098 7.83043 18.53C7.74095 18.3821 7.6306 18.2469 7.50256 18.1284C7.35925 18.0198 7.20702 17.9228 7.04739 17.8382C7.04739 18.0494 6.96092 18.3025 7.04739 18.4685C8.50538 21.2546 10.7428 23.0946 13.9518 23.7261C14.7106 23.8796 15.4788 23.9858 16.2517 24.0442C17.0251 24.0988 17.8057 24.057 18.6056 24.0895C17.9391 24.2172 17.2749 24.4296 16.6036 24.4563C14.7661 24.5283 12.9346 24.5051 11.1403 23.9711C8.87168 23.2966 7.07622 22.0904 5.91367 20.0438C4.97931 18.4012 4.66345 16.6692 5.04776 14.835C5.57513 12.2696 6.86135 9.90726 8.75038 8.03458C10.6532 6.11095 12.9173 4.55481 15.4218 3.44913C17.9919 2.30683 20.7061 1.89471 23.4756 2.40434C25.4992 2.78046 27.2779 3.69523 28.2795 5.58513C29.0001 6.93755 29.3315 8.3515 28.7755 9.85019C28.5089 10.5653 28.223 11.2734 27.966 11.992C27.9204 12.1197 27.966 12.2787 27.978 12.4238C28.1269 12.4169 28.2891 12.4436 28.42 12.3925C28.5665 12.3365 28.6921 12.239 28.7803 12.1127C29.5873 10.8358 30.3007 9.51121 30.3235 7.96493C30.3355 7.15231 30.2671 6.32577 30.2383 5.58049C31.0969 6.934 31.4782 8.52015 31.3251 10.1009Z" fill="white"/>
</svg>