<svg width="12" height="12" viewBox="0 0 12 12" fill="none" xmlns="http://www.w3.org/2000/svg">
    <path d="M4.82966 9.65425C5.90223 9.65428 6.94415 9.29641 7.79033 8.63733L10.9827 11.8297C11.2212 12.0601 11.6012 12.0535 11.8316 11.815C12.0562 11.5823 12.0562 11.2135 11.8316 10.9809L8.63915 7.78851C10.2746 5.68323 9.89377 2.65076 7.78849 1.0153C5.6832 -0.620167 2.65076 -0.239324 1.0153 1.86596C-0.620167 3.97124 -0.239324 7.00371 1.86596 8.63918C2.71353 9.29762 3.75638 9.65479 4.82966 9.65425ZM2.26459 2.26274C3.68125 0.846054 5.97811 0.846028 7.3948 2.26269C8.81149 3.67935 8.81152 5.97621 7.39485 7.3929C5.97819 8.80959 3.68133 8.80962 2.26464 7.39296L2.26459 7.3929C0.847926 5.98656 0.839579 3.69807 2.24592 2.28141L2.26459 2.26274Z" fill="#777777"/>
</svg>
