<svg  width="18" height="18" viewBox="0 0 18 18" fill="none" xmlns="http://www.w3.org/2000/svg">
    <g clip-path="url(#clip0_96_22)">
        <path d="M18 9C18 13.9711 13.9711 18 9 18C4.02891 18 0 13.9711 0 9C0 4.02891 4.02891 0 9 0C13.9711 0 18 4.02891 18 9Z" fill="#8E8E8E"/>
        <path d="M5.97658 13.0089H4.8911V5.51367H5.97658V8.90086V13.0089Z" fill="white"/>
        <path d="M7.56956 5.51367H10.5018C13.293 5.51367 14.5195 7.49419 14.5195 9.26477C14.5195 11.1893 13.004 13.0159 10.5159 13.0159H7.56956V5.51367ZM8.65504 12.0431H10.3819C12.8419 12.0431 13.4058 10.1885 13.4058 9.26477C13.4058 7.76013 12.4401 6.48644 10.3256 6.48644H8.65504V12.0431Z" fill="white"/>
        <path d="M6.14575 3.95305C6.14575 4.33795 5.82856 4.65987 5.43384 4.65987C5.03912 4.65987 4.72194 4.33795 4.72194 3.95305C4.72194 3.56114 5.03912 3.24622 5.43384 3.24622C5.82856 3.24622 6.14575 3.56814 6.14575 3.95305Z" fill="white"/>
    </g>
    <defs>
        <clipPath id="clip0_96_22">
            <rect width="18" height="18" fill="white"/>
        </clipPath>
    </defs>
</svg>
