<svg width="14" height="14" viewBox="0 0 14 14" fill="none" xmlns="http://www.w3.org/2000/svg">
    <path d="M13.0998 12.5496L9.82063 9.13905C10.6638 8.13677 11.1257 6.8757 11.1257 5.56286C11.1257 2.49555 8.63017 0 5.56286 0C2.49555 0 0 2.49555 0 5.56286C0 8.63017 2.49555 11.1257 5.56286 11.1257C6.71437 11.1257 7.81171 10.7784 8.7499 10.1191L12.054 13.5555C12.1921 13.6989 12.3778 13.778 12.5769 13.778C12.7653 13.778 12.9441 13.7062 13.0797 13.5756C13.368 13.2981 13.3772 12.8381 13.0998 12.5496ZM5.56286 1.45118C7.83009 1.45118 9.67454 3.29563 9.67454 5.56286C9.67454 7.83009 7.83009 9.67454 5.56286 9.67454C3.29563 9.67454 1.45118 7.83009 1.45118 5.56286C1.45118 3.29563 3.29563 1.45118 5.56286 1.45118Z" fill="white"/>
</svg>