<svg width="14" height="14" viewBox="0 0 14 14" fill="none" xmlns="http://www.w3.org/2000/svg">
    <path d="M12.0331 0.446447L12.0414 2.14771C11.0734 1.14423 9.82784 0.452599 8.46432 0.161415C7.10079 -0.12977 5.68139 -0.00724242 4.38794 0.513299C3.09449 1.03384 1.98589 1.92869 1.20419 3.08321C0.422482 4.23773 0.00325793 5.59934 0.00022437 6.9936C-0.0163088 7.5888 0.886405 7.59376 0.876485 6.99691C0.876667 5.7513 1.25689 4.5354 1.96637 3.5116C2.67585 2.4878 3.68081 1.70483 4.84703 1.26727C6.01325 0.829713 7.28522 0.758393 8.49304 1.06284C9.70087 1.36728 10.7871 2.033 11.6065 2.97107L9.52336 2.98264C8.93974 2.98595 8.94304 3.86221 9.52666 3.8589L12.4861 3.84237C12.7176 3.84072 12.9242 3.64893 12.9242 3.39928L12.9077 0.439833C12.9077 0.381519 12.8961 0.323786 12.8736 0.269994C12.8511 0.216201 12.8181 0.167423 12.7766 0.126498C12.735 0.0855723 12.6858 0.0533171 12.6316 0.0316089C12.5775 0.00990062 12.5196 -0.000827171 12.4613 4.97306e-05C12.3454 0.00308216 12.2353 0.0516069 12.1549 0.135137C12.0744 0.218666 12.0318 0.330492 12.0331 0.446447ZM13.1243 7.00021C13.1241 8.24582 12.7439 9.46172 12.0344 10.4855C11.3249 11.5093 10.32 12.2923 9.15375 12.7298C7.98753 13.1674 6.71556 13.2387 5.50773 12.9343C4.29991 12.6298 3.21372 11.9641 2.39423 11.0261L4.47577 11.0145C5.05939 11.0112 5.05443 10.1349 4.47246 10.1382L1.51301 10.1548C1.39636 10.1561 1.28493 10.2033 1.2029 10.2863C1.12088 10.3692 1.07488 10.4812 1.07488 10.5978L1.09142 13.5556C1.09142 13.8036 1.29312 14.0053 1.54112 13.9987C1.65631 13.9948 1.76538 13.9459 1.84484 13.8624C1.92431 13.7789 1.96782 13.6676 1.96602 13.5523L1.95776 11.8494C2.92585 12.853 4.17154 13.5447 5.53521 13.8358C6.89889 14.1269 8.31843 14.0043 9.61195 13.4835C10.9055 12.9628 12.014 12.0677 12.7956 10.9129C13.5772 9.75811 13.9962 8.39627 13.9989 7.00187C14.0055 6.70427 13.784 6.55547 13.5624 6.55547C13.3409 6.55547 13.1177 6.70096 13.1226 7.00021H13.1243Z" fill="#888888"/>
</svg>
