<svg width="13" height="9" viewBox="0 0 13 9" fill="none" xmlns="http://www.w3.org/2000/svg">
    <path fill-rule="evenodd" clip-rule="evenodd" d="M12.7614 0.164087C12.8311 0.221569 12.888 0.291531 12.9288 0.369905C12.9695 0.448278 12.9933 0.533498 12.9988 0.620611C13.0042 0.707724 12.9913 0.794991 12.9606 0.877337C12.9299 0.959684 12.8822 1.03547 12.8201 1.10028L5.46973 8.78272C5.40739 8.84778 5.33187 8.90046 5.24762 8.93768C5.16337 8.9749 5.07208 8.9959 4.9791 8.99946C4.88611 9.00301 4.79331 8.98905 4.70613 8.95839C4.61895 8.92773 4.53915 8.88099 4.47141 8.8209L0.21805 5.05046C0.0904481 4.93572 0.0131888 4.78009 0.00153901 4.6143C-0.0101108 4.44852 0.0446965 4.28466 0.15513 4.15508C0.21474 4.08484 0.288886 4.02673 0.373069 3.9843C0.457252 3.94186 0.549714 3.91598 0.644843 3.90822C0.739972 3.90046 0.835783 3.91099 0.926459 3.93917C1.01713 3.96734 1.10078 4.01258 1.17233 4.07213L4.47211 6.86754C4.60989 6.98432 4.79128 7.04479 4.97639 7.03566C5.1615 7.02652 5.33518 6.94852 5.45925 6.81882L11.7813 0.217414C11.9043 0.0889264 12.0762 0.0112271 12.2596 0.00112418C12.443 -0.00897877 12.6233 0.0493267 12.7614 0.163428V0.164087Z" fill="white"/>
</svg> 