<svg width="10" height="10" viewBox="0 0 148 148" fill="none" xmlns="http://www.w3.org/2000/svg">
    <path fill-rule="evenodd" clip-rule="evenodd" d="M3.09251 3.22733C5.07323 1.2455 7.75931 0.132162 10.5601 0.132162C13.3608 0.132162 16.0469 1.2455 18.0276 3.22733L73.934 59.1819L129.84 3.22733C130.815 2.21766 131.98 1.4123 133.269 0.858261C134.557 0.304223 135.943 0.0125966 137.346 0.000399146C138.748 -0.0117983 140.139 0.255675 141.437 0.787215C142.735 1.31876 143.915 2.10372 144.906 3.0963C145.898 4.08888 146.682 5.2692 147.213 6.56839C147.745 7.86758 148.012 9.25962 148 10.6633C147.987 12.067 147.696 13.4541 147.142 14.7439C146.589 16.0336 145.784 17.2001 144.775 18.1753L88.8691 74.1299L144.775 130.084C146.699 132.078 147.764 134.749 147.74 137.52C147.716 140.292 146.605 142.944 144.647 144.904C142.688 146.864 140.039 147.976 137.27 148C134.5 148.024 131.832 146.958 129.84 145.032L73.934 89.0779L18.0276 145.032C16.0355 146.958 13.3675 148.024 10.5981 148C7.82867 147.976 5.17951 146.864 3.22117 144.904C1.26283 142.944 0.151998 140.292 0.127932 137.52C0.103867 134.749 1.16849 132.078 3.09251 130.084L58.9989 74.1299L3.09251 18.1753C1.11238 16.1929 0 13.5045 0 10.7013C0 7.89817 1.11238 5.20977 3.09251 3.22733Z" fill="black"/>
</svg>
