<svg width="750" height="500" viewBox="0 0 750 500" fill="none" xmlns="http://www.w3.org/2000/svg">
<path d="M704.18 191.598C696.3 163.218 643.77 194.088 643.77 194.088L657.52 169.148C659.183 166.641 660.638 164.003 661.87 161.258C668.78 145.818 668.69 129.258 661.87 114.918C660 106.188 654.25 93.7081 638.52 79.9981C608.75 54.1481 508.94 36.4481 480 40.3781C451.06 44.3081 506.27 56.4681 506.27 56.4681H501.9C417.75 47.5481 333.08 46.3981 249.07 48.1381C228 48.5681 206.87 49.2681 186.24 52.8181C180.31 53.8181 173.93 55.4081 170.39 60.1981C154.75 81.4281 218.9 83.4981 229 83.0881C184.93 88.8181 136 90.5781 95 107.608C89.29 109.978 83.62 112.798 79.31 117.188C75 121.578 72.2 127.828 73.17 134.098C76 152.288 101 157.688 115.24 161.728C115.24 161.728 33.5201 216.068 43.1501 243.648C47.5241 256.747 54.6541 268.757 64.06 278.868C57.8172 286.545 52.4319 294.881 48 303.728C45.39 309.068 42 316.378 44.89 322.528C59.77 353.848 285.5 461.388 466.38 430.688C514.43 422.538 562.29 409.058 604.38 385.218C646.3 361.488 689.02 322.288 699.58 272.868C699.93 271.238 700.18 269.658 700.36 268.118C707 245.348 710.78 215.338 704.18 191.598Z" fill="var(--primary-color)"/>
<path opacity="0.8" d="M704.18 191.598C696.3 163.218 643.77 194.088 643.77 194.088L657.52 169.148C659.183 166.641 660.638 164.003 661.87 161.258C668.78 145.818 668.69 129.258 661.87 114.918C660 106.188 654.25 93.7081 638.52 79.9981C608.75 54.1481 508.94 36.4481 480 40.3781C451.06 44.3081 506.27 56.4681 506.27 56.4681H501.9C417.75 47.5481 333.08 46.3981 249.07 48.1381C228 48.5681 206.87 49.2681 186.24 52.8181C180.31 53.8181 173.93 55.4081 170.39 60.1981C154.75 81.4281 218.9 83.4981 229 83.0881C184.93 88.8181 136 90.5781 95.0001 107.608C89.2901 109.978 83.6201 112.798 79.3101 117.188C75.0001 121.578 73.3101 127.748 73.1701 134.098C72.7701 150.868 99.7301 157.098 115.28 161.728C115.28 161.728 33.5601 216.068 43.1901 243.648C47.5641 256.747 54.6942 268.757 64.1001 278.868C57.8433 286.543 52.4445 294.879 48.0001 303.728C45.3901 309.068 42.0001 316.378 44.8901 322.528C59.7701 353.848 285.5 461.388 466.38 430.688C514.43 422.538 562.29 409.058 604.38 385.218C646.3 361.488 689.02 322.288 699.58 272.868C699.93 271.238 700.18 269.658 700.36 268.118C707 245.348 710.78 215.338 704.18 191.598Z" fill="white"/>
<path d="M575.46 161.921L574.97 161.471C574.91 161.421 568.97 156.051 564.18 157.001C559.39 157.951 558.47 160.641 558.43 160.761L557.48 160.441C557.48 160.301 558.66 157.091 563.98 156.021C568.49 155.121 573.58 159.021 575.16 160.311C576.16 158.401 579.72 152.401 583.41 151.941C587.66 151.411 592.26 154.941 592.41 155.101L591.8 155.891C591.75 155.891 587.31 152.451 583.49 152.891C579.67 153.331 575.75 161.211 575.71 161.291L575.46 161.921Z" fill="#263238"/>
<path d="M562.19 181.312L561.7 180.862C561.64 180.812 555.7 175.432 550.91 176.392C546.12 177.352 545.21 180.032 545.17 180.142L544.22 179.822C544.22 179.692 545.39 176.482 550.72 175.412C555.22 174.512 560.31 178.412 561.89 179.702C562.89 177.792 566.45 171.782 570.14 171.322C574.4 170.802 578.99 174.322 579.14 174.492L578.53 175.282C578.53 175.282 574.05 171.832 570.23 172.282C566.41 172.732 562.49 180.602 562.45 180.682L562.19 181.312Z" fill="#263238"/>
<path d="M606.52 181.312L606.03 180.862C606.03 180.862 601.52 176.772 597.92 177.492C594.32 178.212 593.67 180.182 593.64 180.272L592.69 179.952C592.69 179.842 593.61 177.332 597.69 176.512C601.05 175.842 604.85 178.612 606.18 179.712C607.05 178.122 609.7 173.712 612.48 173.392C615.76 172.992 619.3 175.712 619.48 175.832L618.87 176.622C618.87 176.622 615.51 174.022 612.63 174.392C610.31 174.682 607.63 179.052 606.81 180.722L606.52 181.312Z" fill="#263238"/>
<path d="M658.67 201.721L658.18 201.271C658.18 201.271 655.27 198.651 653.01 199.101C650.75 199.551 650.35 200.761 650.33 200.811L649.33 200.491C649.33 200.421 649.97 198.681 652.77 198.121C654.92 197.691 657.31 199.321 658.32 200.121C658.99 198.921 660.66 196.301 662.48 196.121C664.68 195.831 667.08 197.671 667.18 197.751L666.57 198.541C666.57 198.541 664.39 196.881 662.57 197.111C661.12 197.291 659.42 200.111 658.88 201.171L658.67 201.721Z" fill="#263238"/>
<path d="M412.17 178.571H212.43L212.97 177.791C213.19 177.471 218.36 170.121 224.87 170.711C225.94 170.811 226.96 170.921 227.87 171.031C232.48 171.541 235.81 171.911 237.54 169.751C238.18 168.754 238.527 167.596 238.54 166.411C238.83 164.081 239.15 161.411 243.45 159.871C246 158.941 248.65 159.651 251.21 160.341C253.95 161.081 256.54 161.781 258.82 160.481C261.1 159.181 261.51 156.571 261.93 153.811C262.088 151.903 262.636 150.049 263.54 148.361C266.29 144.091 272.29 141.811 276.59 141.811H276.67C279.57 141.811 282.17 143.161 284.67 144.431C287.53 145.891 290.24 147.271 293.25 146.751C294.19 146.517 295.059 146.06 295.783 145.417C296.508 144.775 297.066 143.966 297.41 143.061C298.346 140.754 299.033 138.354 299.46 135.901C300.34 131.691 301.17 127.711 305.18 124.021C309.791 119.988 315.516 117.447 321.6 116.731C346.16 113.251 373.29 131.521 378.54 155.081C378.54 155.271 379.66 159.841 383.77 159.841C385.203 159.703 386.61 159.367 387.95 158.841C393.03 157.161 400.7 154.611 406.5 163.541C413.89 174.911 412.42 178.051 412.23 178.371L412.17 178.571ZM214.4 177.571H411.52C411.67 176.681 411.67 173.151 405.75 164.041C400.37 155.771 393.42 158.041 388.35 159.751C386.913 160.327 385.401 160.694 383.86 160.841C378.94 160.841 377.67 155.361 377.65 155.301C372.51 132.211 345.91 114.301 321.83 117.721C315.948 118.398 310.409 120.839 305.94 124.721C302.18 128.191 301.38 132.011 300.53 136.061C300.092 138.583 299.384 141.05 298.42 143.421C298.018 144.484 297.359 145.431 296.503 146.178C295.646 146.925 294.618 147.448 293.51 147.701C290.17 148.271 287.19 146.701 284.3 145.281C281.9 144.061 279.41 142.791 276.75 142.771H276.67C272.58 142.771 266.93 145.041 264.46 148.861C263.629 150.457 263.132 152.206 263 154.001C262.56 156.871 262.1 159.841 259.39 161.381C256.68 162.921 253.84 162.111 251.03 161.381C248.62 160.731 246.12 160.061 243.87 160.881C240.15 162.231 239.87 164.351 239.62 166.601C239.577 167.977 239.144 169.312 238.37 170.451C236.3 173.041 232.55 172.621 227.81 172.091C226.81 171.981 225.81 171.871 224.81 171.781C220.05 171.271 215.9 175.721 214.4 177.571Z" fill="#263238"/>
<path d="M447.25 126.83H366.37L366.91 126.04C367 125.91 369.17 122.82 371.91 123.04L373.14 123.17C375.07 123.39 376.19 123.47 376.75 122.77C376.978 122.415 377.1 122.002 377.1 121.58C377.103 120.931 377.316 120.301 377.707 119.783C378.098 119.266 378.646 118.889 379.27 118.71C380.358 118.423 381.509 118.486 382.56 118.89C383.456 119.286 384.471 119.318 385.39 118.98C386.18 118.52 386.32 117.59 386.49 116.52C386.553 115.709 386.788 114.922 387.18 114.21C387.824 113.364 388.652 112.675 389.601 112.197C390.551 111.719 391.597 111.463 392.66 111.45C393.843 111.54 394.988 111.91 396 112.53C396.96 113.175 398.104 113.491 399.26 113.43C399.588 113.344 399.89 113.181 400.142 112.955C400.394 112.729 400.589 112.446 400.71 112.13C401.072 111.219 401.341 110.274 401.51 109.31C401.719 107.444 402.563 105.707 403.9 104.39C405.795 102.731 408.149 101.685 410.65 101.39C420.65 99.9695 431.65 107.39 433.82 117.01C433.82 117.08 434.23 118.68 435.63 118.68C436.172 118.617 436.703 118.482 437.21 118.28C439.34 117.58 442.54 116.51 445 120.28C447.93 124.79 447.5 126.22 447.3 126.55L447.25 126.83ZM368.39 125.83H446.54C446.54 125.3 446.21 123.83 444.25 120.83C442.29 117.83 439.67 118.55 437.62 119.23C437.012 119.472 436.372 119.623 435.72 119.68C435.044 119.643 434.401 119.379 433.895 118.93C433.388 118.482 433.048 117.875 432.93 117.21C430.93 108.1 420.38 101.03 410.88 102.38C408.577 102.651 406.41 103.609 404.66 105.13C403.475 106.305 402.739 107.858 402.58 109.52C402.397 110.546 402.109 111.552 401.72 112.52C401.537 112.991 401.24 113.41 400.856 113.74C400.473 114.069 400.014 114.299 399.52 114.41C398.151 114.521 396.784 114.169 395.64 113.41C394.762 112.861 393.77 112.519 392.74 112.41C391.837 112.409 390.947 112.617 390.137 113.016C389.327 113.414 388.62 113.994 388.07 114.71C387.763 115.307 387.579 115.96 387.53 116.63C387.35 117.79 387.14 119.11 385.93 119.8C384.72 120.49 383.54 120.14 382.35 119.8C381.494 119.463 380.557 119.39 379.66 119.59C379.218 119.701 378.827 119.96 378.553 120.324C378.278 120.687 378.136 121.134 378.15 121.59C378.13 122.197 377.932 122.784 377.58 123.28C376.65 124.45 375.07 124.28 373.08 124.05L371.87 123.93C370.44 123.93 369.13 125 368.39 125.83Z" fill="#263238"/>
<path d="M617.15 243.278H536.27L536.82 242.498C536.91 242.368 539.08 239.268 541.82 239.498L543.05 239.628C544.98 239.838 546.05 239.928 546.66 239.228C546.887 238.872 547.012 238.461 547.02 238.038C547.022 237.391 547.234 236.762 547.623 236.244C548.012 235.727 548.558 235.35 549.18 235.168C550.268 234.877 551.42 234.94 552.47 235.348C553.366 235.747 554.383 235.776 555.3 235.428C556.09 234.978 556.23 234.048 556.4 232.968C556.467 232.162 556.702 231.379 557.09 230.668C557.738 229.817 558.573 229.126 559.529 228.647C560.486 228.169 561.54 227.916 562.61 227.908C563.811 227.997 564.973 228.371 566 228.998C566.962 229.641 568.105 229.957 569.26 229.898C569.586 229.812 569.887 229.649 570.137 229.423C570.388 229.197 570.581 228.914 570.7 228.598C571.066 227.689 571.334 226.744 571.5 225.778C571.709 223.913 572.553 222.176 573.89 220.858C575.783 219.196 578.137 218.149 580.64 217.858C590.64 216.438 601.64 223.858 603.81 233.468C603.81 233.548 604.22 235.148 605.62 235.148C606.161 235.082 606.692 234.948 607.2 234.748C609.33 234.038 612.54 232.978 614.99 236.748C617.92 241.248 617.49 242.688 617.3 243.018L617.15 243.278ZM538.29 242.278H616.44C616.44 241.758 616.11 240.328 614.15 237.278C612.19 234.228 609.57 234.998 607.52 235.678C606.912 235.921 606.272 236.072 605.62 236.128C604.948 236.09 604.308 235.826 603.804 235.38C603.3 234.934 602.96 234.331 602.84 233.668C600.84 224.548 590.3 217.468 580.78 218.828C578.477 219.092 576.309 220.047 574.56 221.568C573.382 222.748 572.647 224.299 572.48 225.958C572.298 226.985 572.01 227.991 571.62 228.958C571.439 229.43 571.145 229.851 570.763 230.182C570.381 230.513 569.923 230.746 569.43 230.858C568.059 230.961 566.692 230.609 565.54 229.858C564.666 229.299 563.672 228.957 562.64 228.858C561.744 228.871 560.862 229.084 560.059 229.482C559.256 229.88 558.553 230.453 558 231.158C557.693 231.756 557.509 232.409 557.46 233.078C557.28 234.238 557.07 235.558 555.87 236.248C554.67 236.938 553.47 236.588 552.28 236.248C551.426 235.906 550.487 235.833 549.59 236.038C549.139 236.151 548.742 236.418 548.467 236.792C548.191 237.166 548.054 237.624 548.08 238.088C548.056 238.693 547.862 239.279 547.52 239.778C546.58 240.948 545 240.778 543.01 240.548C542.63 240.548 542.22 240.458 541.8 240.428C540.34 240.388 539 241.488 538.29 242.278Z" fill="#263238"/>
<path d="M496.6 237.758H373.38L373.93 236.978C374.06 236.778 377.29 232.168 381.41 232.548L383.29 232.738C386.06 233.048 388.07 233.278 389.06 232.028C389.444 231.431 389.652 230.737 389.66 230.028C389.647 229.083 389.948 228.16 390.516 227.405C391.085 226.65 391.888 226.106 392.8 225.858C394.42 225.268 396.08 225.708 397.68 226.138C399.28 226.568 400.88 227.008 402.21 226.238C403.54 225.468 403.78 223.928 404.03 222.288C404.125 221.088 404.465 219.92 405.03 218.858C406.75 216.178 410.52 214.748 413.21 214.748C414.98 214.897 416.691 215.455 418.21 216.378C419.95 217.258 421.58 218.088 423.37 217.788C423.916 217.648 424.42 217.379 424.84 217.003C425.259 216.627 425.582 216.155 425.78 215.628C426.347 214.222 426.766 212.76 427.03 211.268C427.58 208.648 428.09 206.178 430.6 203.868C433.464 201.362 437.02 199.783 440.8 199.338C455.97 197.188 472.75 208.478 476 223.048C476.06 223.328 476.72 225.828 479 225.828C479.862 225.735 480.706 225.523 481.51 225.198C484.69 224.148 489.51 222.548 493.13 228.198C497.65 235.138 496.86 237.198 496.66 237.518L496.6 237.758ZM375.37 236.758H495.93C495.93 236.088 495.73 233.888 492.38 228.758C489.16 223.758 485.14 225.128 481.92 226.198C481.014 226.558 480.061 226.787 479.09 226.878C476.6 226.878 475.4 224.648 475.09 223.328C471.95 209.238 455.71 198.328 441.01 200.388C437.431 200.802 434.062 202.295 431.35 204.668C429.08 206.748 428.61 208.968 428.08 211.528C427.805 213.09 427.366 214.618 426.77 216.088C426.51 216.77 426.086 217.377 425.534 217.855C424.983 218.333 424.322 218.667 423.61 218.828C421.49 219.188 419.61 218.248 417.83 217.328C416.447 216.477 414.887 215.956 413.27 215.808C410.8 215.808 407.38 217.148 405.89 219.458C405.401 220.389 405.105 221.409 405.02 222.458C404.74 224.268 404.45 226.138 402.71 227.128C400.97 228.118 399.19 227.608 397.42 227.128C395.9 226.718 394.47 226.328 393.14 226.818C390.96 227.608 390.82 228.818 390.65 230.168C390.626 231.052 390.345 231.911 389.84 232.638C388.5 234.308 386.15 234.048 383.18 233.718L381.32 233.518C378.74 233.298 376.44 235.528 375.37 236.758Z" fill="#263238"/>
<path d="M504.27 390.901C504.27 390.901 496.98 383.351 499.02 383.571C501.06 383.791 504.9 389.451 504.9 389.451C504.9 389.451 504.95 377.001 506.77 379.721C508.59 382.441 506.36 389.501 506.36 389.501C506.36 389.501 511.56 381.391 511.55 382.711C511.55 386.811 507.55 390.021 507.55 390.021C507.55 390.021 515.88 383.851 514.55 386.351C513.22 388.851 507.86 391.221 507.86 391.221C507.86 391.221 517.46 389.281 514.05 390.651C510.64 392.021 507.4 392.951 507.4 392.951H504.74C504.74 392.951 495.68 388.401 499.09 389.081C500.905 389.4 502.654 390.015 504.27 390.901Z" fill="#263238"/>
<path d="M600.56 367.261C600.56 367.261 594.88 361.381 596.48 361.561C598.08 361.741 601.05 366.131 601.05 366.131C601.05 366.131 601.05 356.441 602.51 358.561C603.97 360.681 602.18 366.171 602.18 366.171C602.18 366.171 606.23 359.861 606.18 360.891C606.18 364.081 603.06 366.581 603.06 366.581C603.06 366.581 609.54 361.771 608.48 363.721C607.42 365.671 603.28 367.511 603.28 367.511C603.28 367.511 610.75 366.001 608.09 367.061C605.43 368.121 602.91 368.851 602.91 368.851H600.85C600.85 368.851 593.79 365.311 596.45 365.851C597.888 366.093 599.277 366.569 600.56 367.261Z" fill="#263238"/>
<path d="M690 346.171C690 346.171 684.33 340.291 685.92 340.471C687.51 340.651 690.49 345.041 690.49 345.041C690.49 345.041 690.49 335.351 691.95 337.471C693.41 339.591 691.63 345.081 691.63 345.081C691.63 345.081 695.63 338.771 695.63 339.801C695.63 342.991 692.51 345.491 692.51 345.491C692.51 345.491 698.99 340.691 697.93 342.631C696.87 344.571 692.72 346.421 692.72 346.421C692.72 346.421 700.19 344.911 697.54 345.971C694.89 347.031 692.36 347.761 692.36 347.761H690.29C690.29 347.761 683.29 344.221 685.89 344.761C687.329 345 688.717 345.477 690 346.171Z" fill="#263238"/>
<path d="M576 394.34C576 394.34 569.22 387.34 571.13 387.53C573.04 387.72 576.59 392.99 576.59 392.99C576.59 392.99 576.59 381.42 578.33 383.99C580.07 386.56 578 393 578 393C578 393 582.84 385.46 582.83 386.69C582.83 390.5 579.1 393.48 579.1 393.48C579.1 393.48 586.84 387.75 585.57 390.07C584.3 392.39 579.36 394.6 579.36 394.6C579.36 394.6 588.28 392.8 585.11 394.07C581.94 395.34 578.92 396.2 578.92 396.2H576.46C576.46 396.2 568.03 391.98 571.2 392.61C572.883 392.925 574.503 393.509 576 394.34Z" fill="#var(--primary-color)"/>
<path d="M441.52 364.212L381.87 297.332L368.68 307.882L302.82 208.732L245.56 221.492L228.4 189.442L211.75 188.562L180.4 126.722L133.52 169.502L110.81 161.392L28.22 245.592L27.51 244.892L110.54 160.232L133.29 168.362L180.7 125.102L212.38 187.592L229.01 188.472L246.08 220.352L303.28 207.612L303.47 207.892L368.91 306.422L381.98 295.962L442.27 363.542L441.52 364.212Z" fill="#263238"/>
<path d="M447.224 369.12L446.478 369.785L452.768 376.838L453.515 376.172L447.224 369.12Z" fill="#263238"/>
<path d="M214.967 228.646L210.007 229.992L210.268 230.957L215.229 229.611L214.967 228.646Z" fill="#263238"/>
<path d="M245.578 220.351L220.553 227.141L220.815 228.106L245.84 221.316L245.578 220.351Z" fill="#263238"/>
<path d="M151.68 192.35L150.85 191.79L164.76 171.26L163.82 164.2L163.88 164.06L179.97 131.41L180.87 131.85L164.85 164.37L165.8 171.5L151.68 192.35Z" fill="#263238"/>
<path d="M148.511 195.241L144.997 200.434L145.825 200.994L149.339 195.802L148.511 195.241Z" fill="#263238"/>
<path d="M123.26 212.649L100.521 243.469L101.326 244.062L124.065 213.243L123.26 212.649Z" fill="#263238"/>
<path d="M126.15 210.422L125.34 209.832L128.35 205.752L129.74 187.692L117.08 177.372L111.35 164.492L112.26 164.082L117.89 176.752L130.78 187.252L129.33 206.112L126.15 210.422Z" fill="#263238"/>
<path d="M216.75 201.04L212.17 193.41L213.03 192.89L216.97 199.46L228.36 188.59L229.05 189.31L216.75 201.04Z" fill="#263238"/>
<path d="M447.72 361L447.07 360.24L464.51 345.29L498.93 352.67L552.36 277.87L552.71 277.99L586.86 289.38L614.87 249.84L615.28 250.12L707.3 315.03L706.72 315.85L615.11 251.23L587.25 290.56L552.74 279.06L499.37 353.79L464.78 346.38L447.72 361Z" fill="#263238"/>
<path d="M604.4 299.322L590.95 293.442L591.35 292.522L603.7 297.922L614.5 250.422L615.48 250.642L604.4 299.322Z" fill="#263238"/>
<path d="M526.17 360.473L507.2 357.183L507.37 356.193L525.5 359.343L552.37 281.133L553.32 281.453L526.17 360.473Z" fill="#263238"/>
<path d="M551.6 275.668C545.926 275.649 540.303 276.747 535.053 278.9C529.803 281.053 525.028 284.22 521.002 288.218C516.976 292.217 513.776 296.969 511.587 302.204C509.397 307.439 508.26 313.054 508.24 318.728C508.221 329.328 512.141 339.557 519.24 347.428C524.343 346.703 529.544 347.179 534.43 348.818C539.886 350.637 544.905 353.569 549.17 357.428H553.06C557.329 353.57 562.351 350.639 567.81 348.818C572.957 347.083 578.455 346.65 583.81 347.558C591.007 339.681 594.999 329.398 595 318.728C594.979 313.051 593.84 307.433 591.647 302.196C589.454 296.959 586.251 292.206 582.221 288.207C578.191 284.208 573.412 281.043 568.158 278.891C562.904 276.74 557.277 275.645 551.6 275.668Z" fill="var(--primary-color)"/>
<path d="M571.78 335.999C570.447 336.666 569.113 337.332 567.78 337.999C566.474 338.707 565.208 339.488 563.99 340.339C563.54 340.649 563.1 340.979 562.65 341.339L569.76 328.109L560.01 343.369C559.01 344.169 558.01 344.979 557.1 345.809C555.533 347.142 554 348.542 552.5 350.009L552 335.659L562.2 320.129L552 333.449L551.55 320.609L550.79 334.999L550.06 349.399C548.75 348.169 547.43 346.969 546.06 345.789C544.99 344.859 543.9 343.939 542.79 343.059L533.57 327.309L540.34 341.199C539.95 340.919 539.57 340.629 539.17 340.359C537.952 339.508 536.687 338.727 535.38 338.019C534.08 337.329 532.75 336.659 531.38 336.019C528.711 334.715 525.974 333.557 523.18 332.549C525.885 333.737 528.522 335.072 531.08 336.549C532.36 337.269 533.62 338.009 534.86 338.769C536.078 339.532 537.25 340.367 538.37 341.269C540.6 343.053 542.727 344.963 544.74 346.989C546.5 348.739 548.22 350.559 549.86 352.389L549 370.609H553.27L552.66 353.069C554.49 350.969 556.44 348.909 558.44 346.919C560.453 344.893 562.58 342.983 564.81 341.199C565.93 340.297 567.102 339.462 568.32 338.699C569.56 337.939 570.82 337.199 572.1 336.479C574.662 335.002 577.302 333.667 580.01 332.479C577.204 333.5 574.457 334.676 571.78 335.999Z" fill="#263238"/>
<path d="M218.71 334.76C218.71 347.13 211.77 348.06 203.21 348.06C194.65 348.06 187.71 347.13 187.71 334.76C187.71 322.39 194.65 296.52 203.21 296.52C211.77 296.52 218.71 322.38 218.71 334.76Z" fill="var(--primary-color)"/>
<path d="M208.45 340.368L205.89 340.548L212.56 336.048L207.8 338.458L208.45 336.568L206.27 339.228L203.71 340.518L203.51 331.638L204.87 328.348L203.48 330.198L203.36 325.048L207.61 319.378L203.33 323.758L203.07 312.418L202.84 319.678L200.12 316.638L202.8 321.068L202.44 332.568L200.06 331.018L197.9 327.188L198.77 330.168L194.53 327.398L202.39 334.178L201.2 371.908H204.43L203.75 341.988L204.5 341.488L208.45 340.368Z" fill="#263238"/>
<path d="M635.52 292.15C635.52 316.32 621.96 318.15 605.24 318.15C588.52 318.15 574.96 316.32 574.96 292.15C574.96 267.98 588.51 217.43 605.24 217.43C621.97 217.43 635.52 268 635.52 292.15Z" fill="var(--primary-color)"/>
<path opacity="0.31" d="M635.52 292.15C635.52 316.32 621.96 318.15 605.24 318.15C588.52 318.15 574.96 316.32 574.96 292.15C574.96 267.98 588.51 217.43 605.24 217.43C621.97 217.43 635.52 268 635.52 292.15Z" fill="white"/>
<path d="M615.48 303.12L610.47 303.46L623.51 294.67L614.2 299.38L615.48 295.7L611.22 300.88L606.22 303.41L605.82 286.05L608.47 279.62L605.76 283.24L605.53 273.17L613.83 262.11L605.47 270.66L604.96 248.5L604.52 262.69L599.19 256.75L604.43 265.41L603.72 287.87L599.09 284.84L594.87 277.36L596.56 283.19L588.27 277.77L603.62 291.01L601.3 364.74H607.62L606.28 306.28L607.75 305.3L615.48 303.12Z" fill="#263238"/>
<path d="M700.34 301.66C700.34 314.04 693.4 314.97 684.84 314.97C676.28 314.97 669.34 314.04 669.34 301.66C669.34 289.28 676.28 263.43 684.84 263.43C693.4 263.43 700.34 289.29 700.34 301.66Z" fill="var(--primary-color)"/>
<path opacity="0.5" d="M700.34 301.66C700.34 314.04 693.4 314.97 684.84 314.97C676.28 314.97 669.34 314.04 669.34 301.66C669.34 289.28 676.28 263.43 684.84 263.43C693.4 263.43 700.34 289.29 700.34 301.66Z" fill="white"/>
<path d="M690.08 307.278L687.52 307.448L694.19 302.948L689.42 305.358L690.08 303.478L687.9 306.128L685.34 307.428L685.14 298.538L686.49 295.248L685.11 297.098L684.99 291.948L689.24 286.288L684.96 290.668L684.7 279.328L684.47 286.578L681.75 283.548L684.43 287.978L684.06 299.478L681.69 297.918L679.53 294.088L680.4 297.078L676.16 294.298L684.01 301.078L682.82 338.808H686.06L685.38 308.898L686.12 308.388L690.08 307.278Z" fill="#263238"/>
<path d="M68.67 291.2C68.67 303.57 61.73 304.51 53.17 304.51C44.61 304.51 37.67 303.57 37.67 291.2C37.67 278.83 44.61 253 53.17 253C61.73 253 68.67 278.83 68.67 291.2Z" fill="var(--primary-color)"/>
<path opacity="0.5" d="M68.67 291.2C68.67 303.57 61.73 304.51 53.17 304.51C44.61 304.51 37.67 303.57 37.67 291.2C37.67 278.83 44.61 253 53.17 253C61.73 253 68.67 278.83 68.67 291.2Z" fill="white"/>
<path d="M58.41 296.811L55.85 296.991L62.52 292.491L57.75 294.901L58.41 293.021L56.23 295.671L53.67 296.961L53.47 288.081L54.82 284.791L53.44 286.641L53.32 281.491L57.56 275.831L53.29 280.201L53.03 268.871L52.8 276.121L50.08 273.081L52.76 277.521L52.4 289.011L50.02 287.461L47.86 283.631L48.73 286.621L44.49 283.841L52.34 290.621L51.15 328.351H54.39L53.71 298.431L54.45 297.931L58.41 296.811Z" fill="#263238"/>
<path d="M145.46 263.141C139.786 263.121 134.163 264.22 128.913 266.373C123.663 268.526 118.888 271.692 114.862 275.691C110.836 279.689 107.636 284.442 105.447 289.677C103.257 294.912 102.12 300.527 102.1 306.201C102.081 316.804 106.002 327.035 113.1 334.911C118.202 334.181 123.403 334.654 128.29 336.291C133.746 338.11 138.765 341.042 143.03 344.901H147C151.269 341.043 156.291 338.111 161.75 336.291C166.899 334.566 172.394 334.133 177.75 335.031C184.933 327.149 188.91 316.866 188.9 306.201C188.879 300.52 187.738 294.899 185.543 289.66C183.348 284.42 180.142 279.665 176.107 275.666C172.072 271.666 167.289 268.502 162.03 266.353C156.772 264.203 151.141 263.112 145.46 263.141Z" fill="var(--primary-color)"/>
<path opacity="0.33" d="M145.46 263.141C139.786 263.121 134.163 264.22 128.913 266.373C123.663 268.526 118.888 271.692 114.862 275.691C110.836 279.689 107.636 284.442 105.447 289.677C103.257 294.912 102.12 300.527 102.1 306.201C102.081 316.804 106.002 327.035 113.1 334.911C118.202 334.181 123.403 334.654 128.29 336.291C133.746 338.11 138.765 341.042 143.03 344.901H147C151.269 341.043 156.291 338.111 161.75 336.291C166.899 334.566 172.394 334.133 177.75 335.031C184.933 327.149 188.91 316.866 188.9 306.201C188.879 300.52 187.738 294.899 185.543 289.66C183.348 284.42 180.142 279.665 176.107 275.666C172.072 271.666 167.289 268.502 162.03 266.353C156.772 264.203 151.141 263.112 145.46 263.141Z" fill="white"/>
<path d="M165.64 323.48C164.307 324.147 162.973 324.813 161.64 325.48C160.331 326.18 159.066 326.959 157.85 327.81L156.51 328.81L163.62 315.57L153.87 330.84C152.877 331.633 151.907 332.443 150.96 333.27C149.39 334.64 147.86 336.03 146.36 337.47L145.86 323.12L156.06 307.59L145.79 320.95L145.34 308.1L144.61 322.47L143.88 336.88C142.57 335.64 141.25 334.44 139.88 333.26C138.813 332.333 137.723 331.423 136.61 330.53L127.39 314.78L134.16 328.68C133.77 328.39 133.39 328.11 132.99 327.83C131.774 326.979 130.509 326.2 129.2 325.5C127.9 324.8 126.57 324.13 125.2 323.5C122.531 322.196 119.794 321.038 117 320.03C119.74 321.2 122.411 322.526 125 324C126.28 324.72 127.54 325.463 128.78 326.23C129.998 326.99 131.17 327.821 132.29 328.72C134.518 330.507 136.644 332.417 138.66 334.44C140.42 336.19 142.14 338.01 143.78 339.85L142.85 358.13H147.12L146.51 340.59C148.34 338.49 150.29 336.43 152.29 334.44C154.306 332.417 156.432 330.507 158.66 328.72C159.78 327.821 160.952 326.99 162.17 326.23C163.39 325.41 164.647 324.667 165.94 324C168.501 322.539 171.142 321.224 173.85 320.06C171.053 321.049 168.312 322.191 165.64 323.48Z" fill="#263238"/>
<path d="M265.84 391.648V351.998H214.19V326.598L258.49 221.598H296.28V327.198H312.65V351.998H296.28V391.678L265.84 391.648ZM239.84 327.198H265.84V254.998L239.84 327.198Z" fill="#263238"/>
<path d="M373.53 391.739C363.31 391.739 354.843 389.639 348.13 385.439C341.466 381.311 336.195 375.277 333 368.119C329.667 360.786 328 352.286 328 342.619V266.409C328 256.476 329.607 247.766 332.82 240.279C335.841 233.024 341.054 226.895 347.73 222.749C354.45 218.549 363.057 216.449 373.55 216.449C383.91 216.449 392.413 218.549 399.06 222.749C405.682 226.928 410.851 233.051 413.86 240.279C417.073 247.759 418.68 256.469 418.68 266.409V342.619C418.68 352.266 417.013 360.766 413.68 368.119C410.488 375.276 405.22 381.31 398.56 385.439C391.807 389.639 383.463 391.739 373.53 391.739ZM373.53 363.189C377.31 363.189 380.04 361.999 381.72 359.619C383.462 357.073 384.611 354.168 385.08 351.119C385.61 348.104 385.891 345.05 385.92 341.989V266.999C385.907 263.766 385.659 260.537 385.18 257.339C384.781 254.224 383.669 251.244 381.93 248.629C380.25 246.189 377.45 244.966 373.53 244.959C369.61 244.953 366.777 246.176 365.03 248.629C363.226 251.22 362.074 254.208 361.67 257.339C361.191 260.537 360.943 263.766 360.93 266.999V341.999C360.954 345.061 361.235 348.115 361.77 351.129C362.244 354.213 363.47 357.132 365.34 359.629C367.16 362.003 369.89 363.189 373.53 363.189Z" fill="#263238"/>
<path d="M487.94 391.648V351.998H436.3V326.598L480.59 221.598H518.38V327.198H534.75V351.998H518.38V391.678L487.94 391.648ZM461.94 327.198H487.94V254.998L461.94 327.198Z" fill="#263238"/>
<path d="M720.11 309.641C654.73 352.501 525.61 381.641 377.01 381.641C223.85 381.641 91.3799 350.641 28.0699 305.641V478.001H720.07L720.11 309.641Z" fill="white"/>
<path d="M377 382.169C302.95 382.169 230.93 374.859 168.73 361.029C108.15 347.569 59.41 328.559 27.73 306.029L28.31 305.219C59.84 327.639 108.45 346.589 168.91 360.029C231.09 373.869 303 381.169 377 381.169C511.14 381.169 634 357.459 705.65 317.749L706.14 318.629C634.36 358.409 511.32 382.169 377 382.169Z" fill="#263238"/>
<path d="M711.44 315.607L710.93 314.747C714.11 312.877 717.21 310.947 720.14 309.027L720.69 309.857C717.74 311.797 714.63 313.727 711.44 315.607Z" fill="#263238"/>
<path d="M678.37 299.651C678.37 324.931 664.19 326.841 646.71 326.841C629.23 326.841 615 324.931 615 299.651C615 274.371 629.18 221.531 646.67 221.531C664.16 221.531 678.37 274.371 678.37 299.651Z" fill="var(--primary-color)"/>
<path d="M657.41 311.122L652.17 311.482L665.82 302.292L656.07 307.212L657.41 303.372L652.96 308.792L647.73 311.432L647.32 293.272L650.09 286.562L647.25 290.332L647.01 279.812L655.69 268.242L646.95 277.182L646.42 254.012L645.95 268.842L640.39 262.632L645.86 271.692L645.12 295.182L640.28 292.012L635.86 284.192L637.63 290.282L628.97 284.622L645.02 298.462L642.59 375.562H649.2L647.8 314.432L649.33 313.402L657.41 311.122Z" fill="#263238"/>
<path d="M644.57 376.239C644.57 376.239 632.89 364.129 636.17 364.489C639.45 364.849 645.58 373.909 645.58 373.909C645.58 373.909 645.67 353.909 648.58 358.319C651.49 362.729 647.91 373.999 647.91 373.999C647.91 373.999 656.24 360.999 656.23 363.119C656.17 369.689 649.8 374.829 649.8 374.829C649.8 374.829 663.16 364.939 661 368.999C658.84 373.059 650.28 376.799 650.28 376.799C650.28 376.799 665.67 373.689 660.2 375.879C654.73 378.069 649.53 379.569 649.53 379.569H645.28C645.28 379.569 630.75 372.279 636.22 373.369C639.142 373.858 641.964 374.828 644.57 376.239Z" fill="#263238"/>
<path d="M84.73 361.199C84.73 361.199 74.62 350.729 77.45 351.049C80.28 351.369 85.6 359.189 85.6 359.189C85.6 359.189 85.67 341.929 88.2 345.709C90.73 349.489 87.62 359.259 87.62 359.259C87.62 359.259 94.83 348.019 94.81 349.849C94.81 355.539 89.26 359.979 89.26 359.979C89.26 359.979 100.8 351.429 98.91 354.899C97.02 358.369 89.64 361.639 89.64 361.639C89.64 361.639 102.95 358.959 98.22 360.849C93.49 362.739 89 363.999 89 363.999H85.31C85.31 363.999 72.75 357.699 77.47 358.639C80.0131 359.092 82.4653 359.957 84.73 361.199Z" fill="#263238"/>
<path d="M121.26 285.87C121.26 311.18 107.07 313.09 89.56 313.09C72.05 313.09 57.86 311.18 57.86 285.87C57.86 260.56 72.06 207.66 89.56 207.66C107.06 207.66 121.26 260.56 121.26 285.87Z" fill="var(--primary-color)"/>
<path d="M100.28 297.35L95.04 297.71L108.69 288.51L98.94 293.44L100.28 289.59L95.82 295.02L90.59 297.66L90.18 279.49L92.95 272.76L90.11 276.54L89.87 266L98.56 254.42L89.81 263.38L89.28 240.18L88.81 255.03L83.24 248.81L88.72 257.88L87.98 281.39L83.13 278.22L78.71 270.39L80.48 276.49L71.8 270.82L87.88 284.68L85.44 361.86H92.06L90.66 300.67L92.19 299.64L100.28 297.35Z" fill="#263238"/>
<path d="M195.39 387.508C195.39 387.508 185.28 377.038 188.12 377.358C190.96 377.678 196.27 385.498 196.27 385.498C196.27 385.498 196.34 368.238 198.86 372.018C201.38 375.798 198.28 385.568 198.28 385.568C198.28 385.568 205.49 374.328 205.48 376.158C205.48 381.848 199.92 386.288 199.92 386.288C199.92 386.288 211.47 377.738 209.58 381.208C207.69 384.678 200.3 387.998 200.3 387.998C200.3 387.998 213.61 385.318 208.88 387.208C204.15 389.098 199.65 390.398 199.65 390.398H196C196 390.398 183.43 384.098 188.16 385.038C190.688 385.463 193.13 386.297 195.39 387.508Z" fill="#263238"/>
<path d="M249 410.457C249 410.457 238.89 399.987 241.73 400.307C244.57 400.627 249.88 408.447 249.88 408.447C249.88 408.447 249.95 391.187 252.47 394.967C254.99 398.747 251.89 408.517 251.89 408.517C251.89 408.517 259.1 397.277 259.09 399.117C259.04 404.797 253.53 409.237 253.53 409.237C253.53 409.237 265.08 400.687 263.19 404.157C261.3 407.627 254 410.897 254 410.897C254 410.897 267.31 408.217 262.58 410.107C257.85 411.997 253.35 413.297 253.35 413.297H249.68C249.68 413.297 237.11 406.997 241.84 407.937C244.347 408.385 246.765 409.236 249 410.457Z" fill="#263238"/>
<path d="M392.94 395.05C392.94 395.05 385.65 387.5 387.7 387.73C389.75 387.96 393.57 393.6 393.57 393.6C393.57 393.6 393.63 381.15 395.45 383.88C397.27 386.61 395.03 393.66 395.03 393.66C395.03 393.66 400.23 385.54 400.22 386.87C400.22 390.97 396.22 394.17 396.22 394.17C396.22 394.17 404.55 388 403.22 390.51C401.89 393.02 396.53 395.37 396.53 395.37C396.53 395.37 406.13 393.43 402.71 394.8C399.29 396.17 396.06 397.1 396.06 397.1H393.41C393.41 397.1 384.34 392.55 387.75 393.23C389.566 393.554 391.319 394.168 392.94 395.05Z" fill="#263238"/>
<path d="M676 376.999C676 376.999 670.33 371.119 671.92 371.299C673.51 371.479 676.49 375.869 676.49 375.869C676.49 375.869 676.49 366.179 677.95 368.299C679.41 370.419 677.62 375.909 677.62 375.909C677.62 375.909 681.62 369.599 681.62 370.629C681.62 373.819 678.5 376.309 678.5 376.309C678.5 376.309 684.98 371.509 683.92 373.459C682.86 375.409 678.72 377.239 678.72 377.239C678.72 377.239 686.19 375.739 683.53 376.799C680.87 377.859 678.35 378.589 678.35 378.589H676.3C676.3 378.589 669.24 375.049 671.9 375.589C673.335 375.829 674.721 376.305 676 376.999Z" fill="#263238"/>
<path d="M293.9 395.09C293.9 395.09 283.79 384.62 286.63 384.94C289.47 385.26 294.78 393.08 294.78 393.08C294.78 393.08 294.85 375.82 297.37 379.6C299.89 383.38 296.8 393.16 296.8 393.16C296.8 393.16 304.01 381.91 303.99 383.75C303.94 389.43 298.44 393.87 298.44 393.87C298.44 393.87 309.98 385.32 308.09 388.79C306.2 392.26 298.82 395.53 298.82 395.53C298.82 395.53 312.12 392.85 307.39 394.74C302.66 396.63 298.17 397.93 298.17 397.93H294.49C294.49 397.93 281.92 391.63 286.65 392.57C289.188 393.009 291.637 393.86 293.9 395.09Z" fill="var(--primary-color)"/>
<path d="M221 388.139C221 388.139 214.22 381.139 216.13 381.319C218.04 381.499 221.59 386.789 221.59 386.789C221.59 386.789 221.59 375.209 223.33 377.789C225.07 380.369 222.94 386.879 222.94 386.879C222.94 386.879 227.78 379.329 227.77 380.569C227.77 384.379 224.04 387.359 224.04 387.359C224.04 387.359 231.78 381.619 230.51 383.949C229.24 386.279 224.3 388.469 224.3 388.469C224.3 388.469 233.22 386.669 230.05 387.939C226.88 389.209 223.86 390.079 223.86 390.079H221.4C221.4 390.079 212.97 385.849 216.14 386.489C217.84 386.767 219.482 387.325 221 388.139Z" fill="var(--primary-color)"/>
<path d="M136.26 415.877C136.26 415.877 129.48 408.877 131.39 409.067C133.3 409.257 136.85 414.527 136.85 414.527C136.85 414.527 136.9 402.947 138.59 405.527C140.28 408.107 138.2 414.617 138.2 414.617C138.2 414.617 143 406.997 143 408.267C143 412.077 139.27 415.057 139.27 415.057C139.27 415.057 147.01 409.317 145.75 411.647C144.49 413.977 139.53 416.167 139.53 416.167C139.53 416.167 148.45 414.367 145.28 415.637C142.11 416.907 139.09 417.777 139.09 417.777H136.63C136.63 417.777 128.2 413.547 131.37 414.187C133.083 414.475 134.735 415.046 136.26 415.877Z" fill="var(--primary-color)"/>
<path d="M363 417.241C363 417.241 356.22 410.241 358.12 410.431C360.02 410.621 363.59 415.891 363.59 415.891C363.59 415.891 363.64 404.311 365.33 406.891C367.02 409.471 364.94 415.981 364.94 415.981C364.94 415.981 369.78 408.441 369.76 409.671C369.76 413.481 366.04 416.461 366.04 416.461C366.04 416.461 373.78 410.721 372.51 413.051C371.24 415.381 366.29 417.571 366.29 417.571C366.29 417.571 375.22 415.771 372.05 417.041C368.88 418.311 365.86 419.181 365.86 419.181H363.39C363.39 419.181 354.97 414.951 358.14 415.591C359.84 415.869 361.482 416.426 363 417.241Z" fill="var(--primary-color)"/>
<path d="M473 417.598C473 417.598 466.23 410.598 468.13 410.788C470.03 410.978 473.59 416.258 473.59 416.258C473.59 416.258 473.64 404.678 475.33 407.258C477.02 409.838 474.94 416.338 474.94 416.338C474.94 416.338 479.78 408.798 479.77 410.028C479.77 413.848 476.04 416.828 476.04 416.828C476.04 416.828 483.78 411.088 482.52 413.418C481.26 415.748 476.3 417.938 476.3 417.938C476.3 417.938 485.22 416.138 482.05 417.408C478.88 418.678 475.86 419.548 475.86 419.548H473.4C473.4 419.548 464.97 415.318 468.14 415.948C469.838 416.231 471.48 416.789 473 417.598Z" fill="var(--primary-color)"/>
<path d="M677.47 395.627C677.47 395.627 667.15 384.937 670.05 385.257C672.95 385.577 678.36 393.577 678.36 393.577C678.36 393.577 678.44 375.947 681.01 379.817C683.58 383.687 680.42 393.657 680.42 393.657C680.42 393.657 687.79 382.167 687.77 384.047C687.77 389.847 682.1 394.387 682.1 394.387C682.1 394.387 693.88 385.657 691.95 389.197C690.02 392.737 682.49 396.077 682.49 396.077C682.49 396.077 696.07 393.337 691.24 395.267C686.41 397.197 681.82 398.527 681.82 398.527H678.07C678.07 398.527 665.24 392.087 670.07 393.057C672.66 393.507 675.159 394.375 677.47 395.627Z" fill="var(--primary-color)"/>
<path d="M62.54 395.627C62.54 395.627 52.22 384.937 55.11 385.257C58 385.577 63.43 393.577 63.43 393.577C63.43 393.577 63.51 375.947 66.08 379.817C68.65 383.687 65.49 393.657 65.49 393.657C65.49 393.657 72.8499 382.167 72.8399 384.047C72.8399 389.847 67.17 394.387 67.17 394.387C67.17 394.387 79 385.657 77 389.197C75 392.737 67.53 396.077 67.53 396.077C67.53 396.077 81.12 393.337 76.29 395.267C71.46 397.197 66.87 398.527 66.87 398.527H63.14C63.14 398.527 50.31 392.087 55.14 393.057C57.7296 393.507 60.2288 394.375 62.54 395.627Z" fill="var(--primary-color)"/>
<path d="M113.45 380.539C113.45 380.539 102.89 362.319 105.9 360.919C108.91 359.519 115.14 373.369 115.14 373.369C115.14 373.369 113.93 347.259 116.74 349.669C119.55 352.079 122.16 370.559 122.16 370.559C122.16 370.559 127.79 350.469 129.6 354.689C131.41 358.909 128.15 371.689 128.15 371.689C128.15 371.689 136.22 356.319 137.03 361.339C137.84 366.359 133.21 374.589 133.21 374.589C133.21 374.589 143.85 363.949 144.66 368.169C145.47 372.389 141.85 376.599 141.85 376.599C141.85 376.599 155.9 368.969 152.49 373.189C149.08 377.409 144.06 382.829 144.06 382.829C144.06 382.829 157.51 378.009 155.9 380.829C154.29 383.649 148.27 386.649 148.27 386.649C148.27 386.649 159.27 384.649 158.11 386.449C156.985 387.86 155.633 389.073 154.11 390.039H104.11C104.11 390.039 90.8599 385.249 96.1099 384.849C99.5357 384.696 102.952 385.311 106.11 386.649C106.11 386.649 89.8399 375.649 97.4699 374.809C105.1 373.969 111.33 383.639 111.33 383.639C111.33 383.639 100.49 368.379 104.33 370.789L113.45 380.539Z" fill="var(--primary-color)"/>
<path d="M114.13 385.718C114.13 385.718 100.49 371.588 104.32 372.018C108.15 372.448 115.32 383.018 115.32 383.018C115.32 383.018 115.42 359.728 118.82 364.828C122.22 369.928 118 383.098 118 383.098C118 383.098 127.73 367.928 127.71 370.408C127.64 378.078 120.21 384.068 120.21 384.068C120.21 384.068 135.79 372.538 133.21 377.208C130.63 381.878 120.7 386.308 120.7 386.308C120.7 386.308 138.7 382.688 132.28 385.238C125.86 387.788 119.83 389.548 119.83 389.548H114.83C114.83 389.548 97.83 381.038 104.26 382.318C107.716 382.896 111.051 384.045 114.13 385.718Z" fill="#263238"/>
<path d="M120 390.049H114.8L114.69 389.989C101.95 383.599 102.3 382.589 102.44 382.169C102.66 381.529 103.55 381.649 104.44 381.829C106.974 382.319 109.452 383.059 111.84 384.039C108 379.929 102.46 373.589 103.24 372.039C103.347 371.842 103.516 371.688 103.721 371.599C103.925 371.51 104.154 371.492 104.37 371.549C107.59 371.909 112.75 378.599 114.82 381.479C114.9 375.999 115.33 364.339 117.61 363.659C118.17 363.489 118.71 363.799 119.23 364.569C121.71 368.289 120.39 375.869 119.36 380.159C126.48 369.299 127.36 369.579 127.77 369.689C127.924 369.739 128.055 369.841 128.141 369.978C128.227 370.115 128.262 370.278 128.24 370.439C128.03 374.163 126.627 377.722 124.24 380.589C128.65 377.529 132.84 375.029 133.75 375.829C134.31 376.319 133.85 377.159 133.67 377.479C132.01 380.529 127.44 383.409 124.25 385.139C133.84 383.329 134.02 383.909 134.15 384.339C134.33 384.949 133.6 385.289 132.48 385.739C126.16 388.269 120.05 390.039 119.99 390.059L120 390.049ZM115.09 389.049H119.86C120.53 388.849 126.03 387.219 131.86 384.929C129.48 385.199 125.04 385.929 120.94 386.799L116.77 387.639L117.38 388.279L113.95 386.139C110.947 384.517 107.702 383.393 104.34 382.809L103.95 382.739C107.492 385.081 111.183 387.188 115 389.049H115.09ZM104.18 372.509C104.18 373.789 109.46 380.109 114.54 385.369L116.68 387.589L120.6 385.849C120.7 385.849 130.43 381.449 132.87 376.969C132.941 376.851 133.001 376.727 133.05 376.599C131.59 376.839 125.62 380.739 120.59 384.469L119.98 383.679C120.05 383.629 126.85 378.049 127.27 370.979C125.8 372.459 121.89 378.079 118.5 383.369L116.5 386.549L117.64 382.949C117.64 382.819 121.71 369.949 118.48 365.099C118.16 364.609 117.99 364.589 117.99 364.589C116.9 364.789 115.94 373.219 115.9 383.009V384.619L114.99 383.289C112.99 380.399 107.31 372.839 104.36 372.509H104.18Z" fill="#263238"/>
<path d="M563.2 412.58C563.2 412.58 543.2 378.16 548.93 375.5C554.66 372.84 566.4 399 566.4 399C566.4 399 564.12 349.66 569.4 354.21C574.68 358.76 579.65 393.69 579.65 393.69C579.65 393.69 590.28 355.69 593.7 363.69C597.12 371.69 591 395.82 591 395.82C591 395.82 606.26 366.77 607.78 376.26C609.3 385.75 600.57 401.31 600.57 401.31C600.57 401.31 620.69 381.19 622.21 389.16C623.73 397.13 616.89 405.11 616.89 405.11C616.89 405.11 643.46 390.68 637.01 398.65C630.56 406.62 621.07 416.88 621.07 416.88C621.07 416.88 646.5 407.76 643.46 413.08C640.42 418.4 629.04 424.08 629.04 424.08C629.04 424.08 649.92 420.28 647.64 423.7C645.36 427.12 640.06 430.47 640.06 430.47H545.52C545.52 430.47 520.46 421.42 530.33 420.66C540.2 419.9 549.33 424.08 549.33 424.08C549.33 424.08 518.59 403.2 533.01 401.68C547.43 400.16 559.2 418.38 559.2 418.38C559.2 418.38 538.7 389.53 545.92 394.09L563.2 412.58Z" fill="var(--primary-color)"/>
<path d="M564.49 422.377C564.49 422.377 538.71 395.667 546 396.467C553.29 397.267 566.77 417.247 566.77 417.247C566.77 417.247 566.96 373.247 573.39 382.867C579.82 392.487 571.92 417.427 571.92 417.427C571.92 417.427 590.3 388.747 590.26 393.427C590.13 407.917 576.1 419.247 576.1 419.247C576.1 419.247 605.53 397.447 600.71 406.247C595.89 415.047 577 423.497 577 423.497C577 423.497 610.93 416.647 598.87 421.497C586.81 426.347 575.34 429.638 575.34 429.638H566C566 429.638 534 413.557 546 415.967C558 418.377 564.49 422.377 564.49 422.377Z" fill="#263238"/>
<path d="M575.43 430.109H565.87L565.76 430.059C554.93 424.619 542.16 417.739 542.83 415.799C543.06 415.129 543.98 415.029 546.1 415.449C551.582 416.497 556.92 418.196 562 420.509C556.09 414.259 542.8 399.679 544.29 396.659C544.47 396.279 544.92 395.859 545.98 395.979C552.35 396.679 562.98 411.159 566.21 415.669C566.3 407.449 566.91 382.329 571.21 381.049C572.06 380.789 572.92 381.309 573.78 382.589C578.92 390.319 575.22 407.169 573.31 414.309C579.47 404.809 588.25 391.879 590.16 392.449C590.38 392.519 590.74 392.729 590.73 393.449C590.65 402.449 585.22 410.329 581.06 415.039C588.49 409.759 599.55 402.399 601.37 403.979C602.07 404.589 601.56 405.739 601.12 406.549C597.52 413.139 586.56 419.339 580.81 422.249C601.49 418.249 601.81 419.399 601.98 419.859C602.17 420.499 601.49 420.989 599.1 421.949C587.1 426.729 575.63 430.069 575.52 430.099L575.43 430.109ZM566.1 429.109H575.29C576.29 428.829 587.29 425.579 598.71 421.009C599.299 420.782 599.877 420.525 600.44 420.239C597.53 420.239 586.79 422.039 577.11 423.989L572.65 424.889L576.81 423.039C577 422.959 595.53 414.649 600.22 406.039C600.81 404.969 600.68 404.689 600.68 404.689C599.37 403.779 587.03 411.689 576.34 419.689L575.73 418.899C575.87 418.789 589.53 407.589 589.73 393.549C587.73 394.769 579.41 406.659 572.31 417.729L570.31 420.909L571.45 417.309C571.53 417.059 579.21 392.509 572.98 383.179C572.66 382.689 572.03 381.889 571.54 382.039C568.54 382.939 567.34 404.129 567.28 417.279V418.899L566.38 417.559C566.24 417.359 552.89 397.769 545.96 396.999C545.78 396.999 545.36 396.949 545.28 397.129C544.28 399.219 556.14 412.969 564.92 422.059L567.73 424.969L564.29 422.829C564.23 422.829 557.78 418.829 545.97 416.459C545.317 416.294 544.644 416.22 543.97 416.239C545 417.879 555.82 423.939 566.1 429.109Z" fill="#263238"/>
<path d="M147.85 381.569C147.85 381.569 149.85 379.719 151.64 379.719C153.43 379.719 158.74 382.289 158.74 382.289C158.74 382.289 160.88 385.589 161.07 385.789C161.26 385.989 163.89 387.109 164.07 387.569C164.25 388.029 164.65 389.569 164.65 389.569H148.33L145.33 381.649L147.85 381.569Z" fill="white"/>
<path d="M165.32 390.049H148L144.61 381.149L147.66 381.069C148.18 380.639 149.99 379.219 151.66 379.219C153.47 379.219 158.42 381.579 158.98 381.839L159.1 381.899L159.18 382.019C160.18 383.549 161.31 385.269 161.46 385.449L162.18 385.809C163.8 386.609 164.4 386.969 164.57 387.369C164.74 387.769 165.14 389.259 165.18 389.419L165.32 390.049ZM148.68 389.049H164C163.893 388.612 163.763 388.182 163.61 387.759C162.998 387.362 162.36 387.008 161.7 386.699C161.343 386.557 161.007 386.369 160.7 386.139C160.5 385.939 159.19 383.939 158.38 382.679C156.82 381.939 152.93 380.219 151.62 380.219C150.08 380.219 148.18 381.919 148.16 381.939L148.02 382.059L146.02 382.119L148.68 389.049Z" fill="#263238"/>
<path d="M151.64 379.718L151.54 381.278C151.54 381.278 155.72 383.708 155.63 384.588C155.388 385.587 155.053 386.562 154.63 387.498L156.77 389.738H145.42L146.29 383.028C146.29 383.028 148.72 379.528 151.64 379.718Z" fill="#263238"/>
<path d="M126.55 380.598C126.55 380.598 134.72 368.338 136.55 368.148C137.97 368.187 139.36 368.56 140.609 369.235C141.858 369.911 142.931 370.871 143.74 372.038C144.952 374.536 145.929 377.14 146.66 379.818C146.76 380.108 147.15 380.308 149.38 383.898C151.61 387.488 151.52 389.548 151.52 389.548H119.93C120.305 387.783 120.928 386.079 121.78 384.488C122.765 383.242 124.132 382.354 125.67 381.958L126.55 380.598Z" fill="white"/>
<path d="M152 390.048H119.3L119.42 389.438C119.809 387.616 120.456 385.859 121.34 384.218C122.339 382.904 123.746 381.958 125.34 381.528L126.12 380.318C128.12 377.398 134.57 367.858 136.5 367.648C138.018 367.68 139.507 368.071 140.844 368.791C142.181 369.511 143.328 370.538 144.19 371.788C145.414 374.221 146.379 376.775 147.07 379.408L147.14 379.658L147.33 379.908C147.65 380.338 148.33 381.238 149.82 383.638C152.11 387.328 152.04 389.478 152.03 389.568L152 390.048ZM120.55 389.048H151C150.671 387.303 149.991 385.643 149 384.168C148.248 382.912 147.434 381.693 146.56 380.518C146.418 380.36 146.307 380.177 146.23 379.978C146.193 379.884 146.163 379.787 146.14 379.688C145.489 377.125 144.553 374.643 143.35 372.288C142.591 371.202 141.59 370.308 140.425 369.676C139.26 369.044 137.964 368.692 136.64 368.648C135.64 368.798 130.91 374.978 126.99 380.868L125.99 382.398L125.79 382.448C124.377 382.808 123.117 383.615 122.2 384.748C121.461 386.1 120.913 387.547 120.57 389.048H120.55Z" fill="#263238"/>
<path d="M139.09 389.35C139.09 389.35 138.22 387.21 138.09 386.92C137.96 386.63 137.99 383.81 137.7 382.64C136.941 380.97 136.031 379.374 134.98 377.87L136.73 372.82L135.85 372.14L137.31 368.54L136.5 368.16C134.58 368.5 126.5 380.6 126.5 380.6L125.62 381.96C124.082 382.355 122.715 383.244 121.73 384.49C120.9 386.015 120.293 387.652 119.93 389.35H139.09Z" fill="#263238"/>
<path d="M462.84 384.617C463.501 384.004 464.33 383.6 465.22 383.457C466.32 383.457 469.67 385.067 469.67 385.067C469.67 385.067 471.01 387.137 471.13 387.257C471.25 387.377 472.9 388.087 473.02 388.377C473.14 388.667 473.39 389.617 473.39 389.617H463.14L461.25 384.617H462.84Z" fill="white"/>
<path d="M474 390.117H462.8L460.54 384.177L462.65 384.117C463.367 383.475 464.264 383.07 465.22 382.957C466.4 382.957 469.53 384.447 469.89 384.617L470.01 384.677L470.09 384.797C470.7 385.747 471.4 386.797 471.51 386.927C471.62 387.057 471.69 386.997 471.9 387.107C472.97 387.647 473.35 387.877 473.48 388.177C473.635 388.606 473.766 389.043 473.87 389.487L474 390.117ZM463.46 389.117H472.71C472.64 388.877 472.57 388.667 472.53 388.567C472.49 388.467 471.73 388.157 471.42 387.997C471.177 387.904 470.951 387.772 470.75 387.607C470.218 386.925 469.733 386.206 469.3 385.457C467.998 384.786 466.618 384.282 465.19 383.957C464.424 384.084 463.712 384.432 463.14 384.957L463.01 385.077H461.94L463.46 389.117Z" fill="#263238"/>
<path d="M465.22 383.458L465.16 384.458C465.16 384.458 467.78 385.988 467.72 386.538C467.575 387.166 467.371 387.779 467.11 388.368L468.45 389.768H461.31L461.86 385.558C461.86 385.558 463.39 383.338 465.22 383.458Z" fill="#263238"/>
<path d="M449.48 383.997C449.48 383.997 454.61 376.307 455.77 376.188C456.66 376.215 457.531 376.45 458.314 376.874C459.097 377.297 459.77 377.898 460.28 378.628C461.038 380.195 461.65 381.828 462.11 383.508C462.17 383.688 462.41 383.818 463.82 386.068C464.583 387.102 465.047 388.327 465.16 389.607H445.34C445.572 388.5 445.963 387.433 446.5 386.438C447.118 385.655 447.975 385.097 448.94 384.848L449.48 383.997Z" fill="white"/>
<path d="M465.63 390.117H444.72L444.85 389.507C445.096 388.344 445.506 387.223 446.07 386.177C446.708 385.332 447.603 384.718 448.62 384.427L449.07 383.727C451.07 380.787 454.5 375.827 455.71 375.727C456.697 375.738 457.668 375.988 458.538 376.454C459.408 376.921 460.154 377.591 460.71 378.407C461.493 379.946 462.107 381.565 462.54 383.237V383.377C462.54 383.377 462.54 383.377 462.63 383.487C462.83 383.757 463.26 384.317 464.2 385.837C465.019 386.953 465.51 388.276 465.62 389.657L465.63 390.117ZM445.98 389.117H464.6C464.363 388.126 463.953 387.185 463.39 386.337C462.47 384.867 462.06 384.337 461.87 384.067C461.769 383.95 461.688 383.819 461.63 383.677L461.58 383.497C461.171 381.901 460.587 380.355 459.84 378.887C459.385 378.24 458.788 377.706 458.094 377.327C457.401 376.947 456.63 376.731 455.84 376.697C455.17 376.917 452.24 380.807 449.92 384.277L449.27 385.277L449.08 385.327C448.238 385.536 447.487 386.013 446.94 386.687C446.516 387.449 446.199 388.267 446 389.117H445.98Z" fill="#263238"/>
<path d="M457.35 389.499C457.35 389.499 456.8 388.149 456.74 387.969C456.68 387.789 456.68 385.969 456.5 385.289C456.02 384.241 455.447 383.237 454.79 382.289L455.89 379.119L455.34 378.689L456.25 376.439L455.74 376.199C454.54 376.409 449.48 383.999 449.48 383.999L448.94 384.849C447.975 385.098 447.118 385.657 446.5 386.439C445.977 387.395 445.596 388.423 445.37 389.489L457.35 389.499Z" fill="#263238"/>
<path d="M628.22 414.529C628.22 414.529 632.08 411.039 635.39 411.039C638.7 411.039 648.81 415.899 648.81 415.899C648.81 415.899 652.86 422.129 653.22 422.509C653.58 422.889 658.55 424.999 658.92 425.869C659.29 426.739 660.02 429.609 660.02 429.609H629.14L623.44 414.659L628.22 414.529Z" fill="white"/>
<path d="M660.67 430.11H628.8L622.72 414.17L628 414C628.75 413.35 632.23 410.5 635.36 410.5C638.75 410.5 648.58 415.21 649 415.41L649.12 415.47L649.2 415.59C650.73 417.95 653.27 421.8 653.55 422.12C653.67 422.21 654.41 422.58 655.06 422.91C657.81 424.28 659.06 425 659.35 425.64C659.73 426.53 660.45 429.33 660.48 429.45L660.67 430.11ZM629.49 429.11H659.38C659.14 428.22 658.71 426.65 658.46 426.11C658.21 425.57 655.8 424.46 654.64 423.88C654.015 423.613 653.422 423.277 652.87 422.88C652.5 422.51 649.51 417.88 648.47 416.31C647.3 415.76 638.36 411.56 635.39 411.56C632.42 411.56 628.59 414.89 628.56 414.92L628.42 415.05L624.16 415.16L629.49 429.11Z" fill="#263238"/>
<path d="M635.39 411L635.21 413.94C635.21 413.94 643.11 418.54 642.93 420.19C642.489 422.083 641.873 423.931 641.09 425.71L645.09 429.94H623.59L625.24 417.25C625.24 417.25 629.88 410.68 635.39 411Z" fill="#263238"/>
<path d="M588 412.698C588 412.698 603.45 389.538 606.94 389.168C610.43 388.798 617.78 391.738 620.54 396.518C623.3 401.298 625.87 410.678 626.06 411.228C626.25 411.778 626.98 412.148 631.2 418.948C635.42 425.748 635.25 429.608 635.25 429.608H575.46C575.46 429.608 576.75 423.538 578.96 420.048C581.17 416.558 586.31 415.268 586.31 415.268L588 412.698Z" fill="white"/>
<path d="M635.68 430.109H574.85L574.98 429.509C574.98 429.249 576.31 423.309 578.53 419.779C580.6 416.509 585 415.119 585.99 414.839L587.55 412.419C589.14 410.029 603.22 389.049 606.85 388.669C610.48 388.289 618.07 391.299 620.93 396.269C622.58 399.119 624.4 403.929 626.35 410.579C626.42 410.839 626.47 411.009 626.49 411.069C626.603 411.284 626.741 411.485 626.9 411.669C627.51 412.479 628.77 414.149 631.59 418.669C635.85 425.529 635.71 429.459 635.71 429.619L635.68 430.109ZM576.09 429.109H634.69C634.58 427.899 633.98 424.429 630.69 419.209C629.261 416.822 627.712 414.509 626.05 412.279C625.818 412.01 625.629 411.706 625.49 411.379L625.34 410.859C623.41 404.289 621.62 399.549 620.02 396.769C617.39 392.209 610.24 389.299 606.9 389.659C604.53 389.909 594.25 404.089 588.33 412.969L586.57 415.709L586.38 415.759C586.38 415.759 581.38 417.039 579.38 420.319C577.88 423.082 576.773 426.04 576.09 429.109Z" fill="#263238"/>
<path d="M611.68 429.239C611.68 429.239 610.02 425.239 609.84 424.649C609.66 424.059 609.66 418.759 609.1 416.559C608.54 414.359 603.96 407.559 603.96 407.559L607.27 397.999L605.61 396.709L608.37 389.909L606.83 389.199C603.21 389.849 587.96 412.709 587.96 412.709L586.31 415.279C586.31 415.279 581.16 416.569 578.96 420.059C577.07 423.059 575.86 427.899 575.55 429.249L611.68 429.239Z" fill="#263238"/>
</svg>
