<svg width="199" height="37" viewBox="0 0 199 37" fill="none" xmlns="http://www.w3.org/2000/svg">
    <path d="M49.1183 9.17057C47.5142 5.75916 44.9046 3.29435 41.3377 1.84058C36.4978 -0.141834 31.4571 -0.387984 26.3255 0.462803C20.9263 1.35819 16.0571 3.4579 11.6273 6.53395C10.7437 7.1485 9.88756 7.79939 9.01942 8.42716C8.97653 8.37925 8.93535 8.33134 8.89246 8.28509L14.0738 3.6231L13.9451 3.33731C13.4785 3.45295 12.9329 3.45625 12.5572 3.70075C8.47383 6.37371 5.12654 9.71408 2.71601 13.8937C0.974589 16.9036 -0.0839869 20.0739 0.00522852 23.5579C0.0421845 26.1661 1.08126 28.6686 2.92189 30.5823C4.18978 31.9287 5.73389 32.9282 7.34492 33.8863C10.5618 35.7878 14.0361 36.7575 17.7677 36.9525C23.8 37.2697 29.4875 35.9927 34.8216 33.318C36.6659 32.3977 38.4317 31.3382 40.1024 30.1495C42.1256 28.6872 43.9017 26.9324 45.3679 24.9473C47.5982 21.9852 49.5987 18.9604 49.923 15.1558C50.1031 13.0858 50.0174 11.0836 49.1183 9.17057ZM44.7502 14.3744C44.5398 16.4418 43.9257 18.4523 42.9402 20.3002C40.1762 25.5123 35.6897 28.8394 30.148 30.8731C26.0716 32.3731 21.827 32.5598 17.6562 31.2035C14.9694 30.3279 12.7167 28.7601 11.1863 26.3697C11.0585 26.1591 10.9009 25.9668 10.7179 25.7981C10.5132 25.6436 10.2957 25.5055 10.0677 25.3851C10.0677 25.6857 9.94417 26.0459 10.0677 26.2821C12.1505 30.247 15.3469 32.8654 19.9312 33.7641C21.0152 33.9825 22.1126 34.1337 23.2167 34.2167C24.3216 34.2944 25.4368 34.2349 26.5794 34.2812C25.6272 34.4629 24.6784 34.7652 23.7194 34.8032C21.0944 34.9056 18.478 34.8726 15.9147 34.1127C12.6738 33.1528 10.1089 31.4364 8.4481 28.5239C7.1133 26.1863 6.66207 23.7215 7.21109 21.1113C7.96447 17.4606 9.80192 14.0988 12.5005 11.4338C15.2189 8.69636 18.4532 6.48184 22.0312 4.90837C25.7027 3.28279 29.5802 2.69632 33.5365 3.42156C36.4274 3.95681 38.9684 5.2586 40.3992 7.94808C41.4286 9.87267 41.9022 11.8848 41.1078 14.0176C40.7269 15.0352 40.3186 16.0429 39.9515 17.0655C39.8863 17.2473 39.9514 17.4736 39.9686 17.6801C40.1813 17.6702 40.413 17.7082 40.6 17.6355C40.8093 17.5557 40.9887 17.417 41.1147 17.2373C42.2676 15.4201 43.2867 13.5352 43.3193 11.3347C43.3365 10.1783 43.2387 9.00206 43.1975 7.94147C44.4241 9.86761 44.9689 12.1248 44.7502 14.3744Z" fill="white"/>
    <path d="M82.477 23.148H76.451L75.485 26H71.368L77.21 9.854H81.764L87.606 26H83.443L82.477 23.148ZM81.465 20.112L79.464 14.201L77.486 20.112H81.465ZM94.26 12.982C95.1647 12.982 95.9543 13.166 96.629 13.534C97.319 13.902 97.848 14.385 98.216 14.983V13.166H102.149V25.977C102.149 27.1577 101.911 28.2233 101.436 29.174C100.976 30.14 100.263 30.9067 99.297 31.474C98.3463 32.0413 97.158 32.325 95.732 32.325C93.8307 32.325 92.2897 31.8727 91.109 30.968C89.9283 30.0787 89.2537 28.8673 89.085 27.334H92.972C93.0947 27.8247 93.386 28.208 93.846 28.484C94.306 28.7753 94.8733 28.921 95.548 28.921C96.3607 28.921 97.0047 28.6833 97.48 28.208C97.9707 27.748 98.216 27.0043 98.216 25.977V24.16C97.8327 24.758 97.3037 25.2487 96.629 25.632C95.9543 26 95.1647 26.184 94.26 26.184C93.202 26.184 92.2437 25.9157 91.385 25.379C90.5263 24.827 89.844 24.0527 89.338 23.056C88.8473 22.044 88.602 20.8787 88.602 19.56C88.602 18.2413 88.8473 17.0837 89.338 16.087C89.844 15.0903 90.5263 14.3237 91.385 13.787C92.2437 13.2503 93.202 12.982 94.26 12.982ZM98.216 19.583C98.216 18.6017 97.94 17.8273 97.388 17.26C96.8513 16.6927 96.192 16.409 95.41 16.409C94.628 16.409 93.961 16.6927 93.409 17.26C92.8723 17.812 92.604 18.5787 92.604 19.56C92.604 20.5413 92.8723 21.3233 93.409 21.906C93.961 22.4733 94.628 22.757 95.41 22.757C96.192 22.757 96.8513 22.4733 97.388 21.906C97.94 21.3387 98.216 20.5643 98.216 19.583ZM108.927 15.305C109.387 14.5997 109.962 14.0477 110.652 13.649C111.342 13.235 112.109 13.028 112.952 13.028V17.191H111.871C110.89 17.191 110.154 17.4057 109.663 17.835C109.173 18.249 108.927 18.985 108.927 20.043V26H104.994V13.166H108.927V15.305ZM120.674 26.184C119.417 26.184 118.282 25.9157 117.27 25.379C116.274 24.8423 115.484 24.0757 114.901 23.079C114.334 22.0823 114.05 20.917 114.05 19.583C114.05 18.2643 114.342 17.1067 114.924 16.11C115.507 15.098 116.304 14.3237 117.316 13.787C118.328 13.2503 119.463 12.982 120.72 12.982C121.978 12.982 123.112 13.2503 124.124 13.787C125.136 14.3237 125.934 15.098 126.516 16.11C127.099 17.1067 127.39 18.2643 127.39 19.583C127.39 20.9017 127.091 22.067 126.493 23.079C125.911 24.0757 125.106 24.8423 124.078 25.379C123.066 25.9157 121.932 26.184 120.674 26.184ZM120.674 22.78C121.426 22.78 122.062 22.504 122.583 21.952C123.12 21.4 123.388 20.6103 123.388 19.583C123.388 18.5557 123.128 17.766 122.606 17.214C122.1 16.662 121.472 16.386 120.72 16.386C119.954 16.386 119.317 16.662 118.811 17.214C118.305 17.7507 118.052 18.5403 118.052 19.583C118.052 20.6103 118.298 21.4 118.788 21.952C119.294 22.504 119.923 22.78 120.674 22.78ZM141.782 15.052C141.782 15.9873 141.567 16.846 141.138 17.628C140.708 18.3947 140.049 19.0157 139.16 19.491C138.27 19.9663 137.166 20.204 135.848 20.204H133.41V26H129.477V9.854H135.848C137.136 9.854 138.224 10.0763 139.114 10.521C140.003 10.9657 140.67 11.579 141.115 12.361C141.559 13.143 141.782 14.04 141.782 15.052ZM135.549 17.076C136.3 17.076 136.86 16.8997 137.228 16.547C137.596 16.1943 137.78 15.696 137.78 15.052C137.78 14.408 137.596 13.9097 137.228 13.557C136.86 13.2043 136.3 13.028 135.549 13.028H133.41V17.076H135.549ZM149.671 26.184C148.414 26.184 147.279 25.9157 146.267 25.379C145.271 24.8423 144.481 24.0757 143.898 23.079C143.331 22.0823 143.047 20.917 143.047 19.583C143.047 18.2643 143.339 17.1067 143.921 16.11C144.504 15.098 145.301 14.3237 146.313 13.787C147.325 13.2503 148.46 12.982 149.717 12.982C150.975 12.982 152.109 13.2503 153.121 13.787C154.133 14.3237 154.931 15.098 155.513 16.11C156.096 17.1067 156.387 18.2643 156.387 19.583C156.387 20.9017 156.088 22.067 155.49 23.079C154.908 24.0757 154.103 24.8423 153.075 25.379C152.063 25.9157 150.929 26.184 149.671 26.184ZM149.671 22.78C150.423 22.78 151.059 22.504 151.58 21.952C152.117 21.4 152.385 20.6103 152.385 19.583C152.385 18.5557 152.125 17.766 151.603 17.214C151.097 16.662 150.469 16.386 149.717 16.386C148.951 16.386 148.314 16.662 147.808 17.214C147.302 17.7507 147.049 18.5403 147.049 19.583C147.049 20.6103 147.295 21.4 147.785 21.952C148.291 22.504 148.92 22.78 149.671 22.78ZM162.407 15.305C162.867 14.5997 163.442 14.0477 164.132 13.649C164.822 13.235 165.589 13.028 166.432 13.028V17.191H165.351C164.37 17.191 163.634 17.4057 163.143 17.835C162.652 18.249 162.407 18.985 162.407 20.043V26H158.474V13.166H162.407V15.305ZM175.465 22.665V26H173.464C172.038 26 170.926 25.655 170.129 24.965C169.331 24.2597 168.933 23.1173 168.933 21.538V16.432H167.369V13.166H168.933V10.038H172.866V13.166H175.442V16.432H172.866V21.584C172.866 21.9673 172.958 22.2433 173.142 22.412C173.326 22.5807 173.632 22.665 174.062 22.665H175.465ZM176.873 19.56C176.873 18.2413 177.119 17.0837 177.609 16.087C178.115 15.0903 178.798 14.3237 179.656 13.787C180.515 13.2503 181.473 12.982 182.531 12.982C183.436 12.982 184.226 13.166 184.9 13.534C185.59 13.902 186.119 14.385 186.487 14.983V13.166H190.42V26H186.487V24.183C186.104 24.781 185.567 25.264 184.877 25.632C184.203 26 183.413 26.184 182.508 26.184C181.466 26.184 180.515 25.9157 179.656 25.379C178.798 24.827 178.115 24.0527 177.609 23.056C177.119 22.044 176.873 20.8787 176.873 19.56ZM186.487 19.583C186.487 18.6017 186.211 17.8273 185.659 17.26C185.123 16.6927 184.463 16.409 183.681 16.409C182.899 16.409 182.232 16.6927 181.68 17.26C181.144 17.812 180.875 18.5787 180.875 19.56C180.875 20.5413 181.144 21.3233 181.68 21.906C182.232 22.4733 182.899 22.757 183.681 22.757C184.463 22.757 185.123 22.4733 185.659 21.906C186.211 21.3387 186.487 20.5643 186.487 19.583ZM197.199 8.98V26H193.266V8.98H197.199Z" fill="white"/>
</svg>