<svg width="50" height="37" viewBox="0 0 50 37" fill="none" xmlns="http://www.w3.org/2000/svg">
<path d="M49.1183 9.17057C47.5142 5.75916 44.9046 3.29435 41.3377 1.84058C36.4978 -0.141834 31.4571 -0.387984 26.3255 0.462803C20.9263 1.35819 16.0571 3.4579 11.6273 6.53395C10.7437 7.1485 9.88756 7.79939 9.01942 8.42716C8.97653 8.37925 8.93535 8.33134 8.89246 8.28509L14.0738 3.6231L13.9451 3.33731C13.4785 3.45295 12.9329 3.45625 12.5572 3.70075C8.47383 6.37371 5.12654 9.71408 2.71601 13.8937C0.974589 16.9036 -0.0839869 20.0739 0.00522852 23.5579C0.0421845 26.1661 1.08126 28.6686 2.92189 30.5823C4.18978 31.9287 5.73389 32.9282 7.34492 33.8863C10.5618 35.7878 14.0361 36.7575 17.7677 36.9525C23.8 37.2697 29.4875 35.9927 34.8216 33.318C36.6659 32.3977 38.4317 31.3382 40.1024 30.1495C42.1256 28.6872 43.9017 26.9324 45.3679 24.9473C47.5982 21.9852 49.5987 18.9604 49.923 15.1558C50.1031 13.0858 50.0174 11.0836 49.1183 9.17057ZM44.7502 14.3744C44.5398 16.4418 43.9257 18.4523 42.9402 20.3002C40.1762 25.5123 35.6897 28.8394 30.148 30.8731C26.0716 32.3731 21.827 32.5598 17.6562 31.2035C14.9694 30.3279 12.7167 28.7601 11.1863 26.3697C11.0585 26.1591 10.9009 25.9668 10.7179 25.7981C10.5132 25.6436 10.2957 25.5055 10.0677 25.3851C10.0677 25.6857 9.94417 26.0459 10.0677 26.2821C12.1505 30.247 15.3469 32.8654 19.9312 33.7641C21.0152 33.9825 22.1126 34.1337 23.2167 34.2167C24.3216 34.2944 25.4368 34.2349 26.5794 34.2812C25.6272 34.4629 24.6784 34.7652 23.7194 34.8032C21.0944 34.9056 18.478 34.8726 15.9147 34.1127C12.6738 33.1528 10.1089 31.4364 8.4481 28.5239C7.1133 26.1863 6.66207 23.7215 7.21109 21.1113C7.96447 17.4606 9.80192 14.0988 12.5005 11.4338C15.2189 8.69636 18.4532 6.48184 22.0312 4.90837C25.7027 3.28279 29.5802 2.69632 33.5365 3.42156C36.4274 3.95681 38.9684 5.2586 40.3992 7.94808C41.4286 9.87267 41.9022 11.8848 41.1078 14.0176C40.7269 15.0352 40.3186 16.0429 39.9515 17.0655C39.8863 17.2473 39.9514 17.4736 39.9686 17.6801C40.1813 17.6702 40.413 17.7082 40.6 17.6355C40.8093 17.5557 40.9887 17.417 41.1147 17.2373C42.2676 15.4201 43.2867 13.5352 43.3193 11.3347C43.3365 10.1783 43.2387 9.00206 43.1975 7.94147C44.4241 9.86761 44.9689 12.1248 44.7502 14.3744Z" fill="white"/>
</svg>
