<svg width="32" height="32" viewBox="0 0 32 32" fill="none" xmlns="http://www.w3.org/2000/svg">
    <path d="M16 0C7.21187 0 0 7.21187 0 16C0 23.4993 5.26219 30.3115 12.25 32V26.7066C11.5576 26.8581 10.9204 26.8626 10.2156 26.6548C9.27 26.3757 8.50169 25.7459 7.93138 24.7854C7.56787 24.1721 6.92356 23.5071 6.25144 23.5559L6.08669 21.6882C7.54006 21.5637 8.79731 22.5737 9.54369 23.8276C9.87525 24.3853 10.2568 24.7122 10.7466 24.8567C11.22 24.9961 11.7282 24.9292 12.3206 24.72C12.4692 23.5342 13.0124 23.0903 13.4229 22.4653V22.4644C9.25537 21.8427 7.5945 19.6319 6.93531 17.8867C6.06175 15.5696 6.5305 12.6748 8.07519 10.8455C8.10519 10.8098 8.15944 10.7166 8.13844 10.6514C7.43019 8.512 8.29319 6.74219 8.32494 6.5545C9.14231 6.79612 9.27512 6.31125 11.8755 7.89113L12.3249 8.16113C12.5129 8.27319 12.4539 8.20925 12.6418 8.19506C13.7276 7.90013 14.8721 7.73731 15.9998 7.72269C17.136 7.73731 18.2732 7.90019 19.4038 8.20706L19.5493 8.22169C19.5366 8.21975 19.5889 8.21238 19.6765 8.16019C22.9248 6.19263 22.8081 6.83569 23.6792 6.5525C23.7107 6.7405 24.5623 8.53906 23.8616 10.6514C23.7671 10.9424 26.6777 13.6076 25.0644 17.886C24.4053 19.6318 22.7446 21.8427 18.5771 22.4644V22.4653C19.1113 23.2796 19.7532 23.7126 19.7498 25.3923V32C26.7378 30.3115 31.9998 23.4993 31.9998 16C32 7.21187 24.7881 0 16 0Z" fill="white"/>
</svg>