<svg width="33" height="28" viewBox="0 0 33 28" fill="none" xmlns="http://www.w3.org/2000/svg">
    <path d="M27.8253 15.3071H25.3103C25.5667 16.0089 25.7067 16.7663 25.7067 17.5557V27.0608C25.7067 27.3899 25.6495 27.7058 25.5452 27.9996H29.703C31.2561 27.9996 32.5196 26.7361 32.5196 25.183V20.0014C32.5197 17.413 30.4138 15.3071 27.8253 15.3071ZM6.81294 17.5558C6.81294 16.7663 6.95299 16.009 7.20933 15.3071H4.69439C2.1059 15.3071 0 17.413 0 20.0015V25.1831C0 26.7362 1.2635 27.9998 2.81664 27.9998H6.97445C6.86744 27.6983 6.81282 27.3807 6.81294 27.0608V17.5558ZM19.1346 12.8614H13.3851C10.7966 12.8614 8.69069 14.9673 8.69069 17.5558V27.0608C8.69069 27.5793 9.11104 27.9997 9.62957 27.9997H22.8901C23.4086 27.9997 23.829 27.5794 23.829 27.0608V17.5558C23.829 14.9673 21.7231 12.8614 19.1346 12.8614ZM16.2598 0.414062C13.1468 0.414062 10.6142 2.94666 10.6142 6.05972C10.6142 8.17128 11.7797 10.0154 13.5008 10.9837C14.3172 11.4429 15.2583 11.7053 16.2598 11.7053C17.2613 11.7053 18.2025 11.4429 19.0189 10.9837C20.7401 10.0154 21.9054 8.17121 21.9054 6.05972C21.9054 2.94672 19.3728 0.414062 16.2598 0.414062ZM6.34629 5.67622C4.01815 5.67622 2.12413 7.57023 2.12413 9.89838C2.12413 12.2265 4.01815 14.1205 6.34629 14.1205C6.91841 14.121 7.48459 14.0046 8.01007 13.7783C8.89331 13.3981 9.62157 12.7249 10.0722 11.8818C10.3987 11.2717 10.5691 10.5903 10.5685 9.89838C10.5685 7.5703 8.67443 5.67622 6.34629 5.67622ZM26.1734 5.67622C23.8452 5.67622 21.9512 7.57023 21.9512 9.89838C21.9505 10.5903 22.121 11.2717 22.4475 11.8818C22.8981 12.725 23.6264 13.3981 24.5096 13.7783C25.0351 14.0046 25.6013 14.121 26.1734 14.1205C28.5015 14.1205 30.3955 12.2265 30.3955 9.89838C30.3955 7.57023 28.5015 5.67622 26.1734 5.67622Z" fill="white"/>
</svg>