<svg width="34" height="34" viewBox="0 0 34 34" fill="none" xmlns="http://www.w3.org/2000/svg">
    <g clip-path="url(#clip0_716_444)">
        <path d="M34 6.45788C32.7356 7.0125 31.3884 7.38013 29.9837 7.55862C31.4287 6.69587 32.5316 5.34012 33.0501 3.706C31.7029 4.50925 30.2154 5.07663 28.6301 5.39325C27.3509 4.03113 25.5276 3.1875 23.5386 3.1875C19.6796 3.1875 16.5729 6.31975 16.5729 10.1596C16.5729 10.7121 16.6196 11.2434 16.7344 11.7491C10.9395 11.4665 5.81187 8.68913 2.36725 4.45825C1.76587 5.50163 1.41313 6.69588 1.41313 7.9815C1.41313 10.3955 2.65625 12.5354 4.50925 13.7743C3.38937 13.753 2.29075 13.4279 1.36 12.9158V12.9922C1.36 16.3795 3.77612 19.193 6.9445 19.8411C6.37712 19.9963 5.75875 20.0706 5.117 20.0706C4.67075 20.0706 4.22025 20.0451 3.79737 19.9516C4.7005 22.712 7.26325 24.7414 10.3105 24.8072C7.939 26.6624 4.92788 27.7801 1.66813 27.7801C1.0965 27.7801 0.54825 27.7546 0 27.6845C3.08762 29.6756 6.74688 30.8125 10.693 30.8125C23.5195 30.8125 30.532 20.1875 30.532 10.9777C30.532 10.6696 30.5214 10.3721 30.5065 10.0768C31.8899 9.095 33.0522 7.86888 34 6.45788Z" fill="white"/>
    </g>
    <defs>
        <clipPath id="clip0_716_444">
            <rect width="34" height="34" fill="white"/>
        </clipPath>
    </defs>
</svg>