<svg version="1.1" viewBox="144 144 512 512" width="20" height="21" xmlns="http://www.w3.org/2000/svg" fill="#5c5757" stroke="#5c5757"><g id="SVGRepo_bgCarrier" stroke-width="0"></g><g id="SVGRepo_tracerCarrier" stroke-linecap="round" stroke-linejoin="round"></g><g id="SVGRepo_iconCarrier"> <defs> <clipPath id="a"> <path d="m166 148.09h468v503.81h-468z"></path> </clipPath> </defs> <g clip-path="url(#a)"> <path d="m633.87 480.5c0-0.16016-0.054688-0.37109-0.054688-0.53125-0.054687-0.42578-0.10547-0.79688-0.21094-1.2188 0-0.10547 0-0.16016-0.054688-0.26562l-30.863-98.109c-1.0078-3.2891-4.082-5.5156-7.5312-5.5156h-13.258v-20.312l-18.297-18.297 0.003907-139h-23.281v-49.16h-280.65v49.16h-23.281v48.258l-18.297 0.003906v129.29h-6.6289c-3.2891 0-6.2031 2.0156-7.3711 5.0898l-37.492 98.109c-0.054688 0.10547-0.054688 0.21094-0.10547 0.31641-0.16016 0.42578-0.26562 0.84766-0.31641 1.2734-0.054688 0.21094-0.054688 0.42578-0.054688 0.63672s-0.054687 0.37109-0.054687 0.58203v163.18c0 4.3477 3.5547 7.8477 7.8477 7.8477h452.1c4.3477 0 7.8477-3.5547 7.8477-7.8477v-163.18c0.054687-0.10547 0-0.21094 0-0.31641zm-44.492-89.945 25.934 82.414h-33.41l-0.003906-82.414zm-111.85-118.16 77.535 77.535h-77.535zm-202.16-108.56h249.25v33.41h-249.25zm-23.227 49.16h295.77v107.5l-74.992-74.984h-220.77zm-18.297 48.262h227.93v104.37h104.37v107.29h-332.3zm-16.969 129.29h1.2188v82.414h-32.723zm401.3 245.59h-436.35v-147.43h436.3v147.43zm-325.3-38.98h214.25v-65.387h-214.25zm15.754-49.637h182.75v33.887h-182.75zm29.219-239.18h-80.609v-15.75h80.609zm76.844 40.09h-158.2v-15.75h158.2zm0 40.148h-158.2v-15.75h158.2z"></path> </g> </g></svg>