<svg width="18" height="18" viewBox="0 0 18 18" fill="none" xmlns="http://www.w3.org/2000/svg">
<path d="M14.5248 1.3828H13.8534V0.703125C13.8534 0.314789 13.5387 0 13.1506 0C12.7624 0 12.4477 0.314789 12.4477 0.703125V1.3828H5.55221V0.703125C5.55221 0.314789 5.23757 0 4.8494 0C4.46124 0 4.14659 0.314789 4.14659 0.703125V1.3828H3.47523C1.55898 1.3828 0 2.94247 0 4.85954V14.5232C0 16.4403 1.55898 18 3.47523 18H14.5248C16.441 18 18 16.4403 18 14.5232V4.85954C18 2.94247 16.441 1.3828 14.5248 1.3828ZM3.47523 2.78905H4.14659V4.16014C4.14659 4.54848 4.46124 4.86327 4.8494 4.86327C5.23757 4.86327 5.55221 4.54848 5.55221 4.16014V2.78905H12.4478V4.16014C12.4478 4.54848 12.7624 4.86327 13.1506 4.86327C13.5388 4.86327 13.8534 4.54848 13.8534 4.16014V2.78905H14.5248C15.666 2.78905 16.5944 3.71788 16.5944 4.85954V5.53124H1.40562V4.85954C1.40562 3.71788 2.33404 2.78905 3.47523 2.78905ZM14.5248 16.5938H3.47523C2.33404 16.5938 1.40562 15.6649 1.40562 14.5232V6.93749H16.5944V14.5232C16.5944 15.6649 15.666 16.5938 14.5248 16.5938ZM6.24333 9.70312C6.24333 10.0915 5.92868 10.4062 5.54051 10.4062H4.15833C3.77016 10.4062 3.45552 10.0915 3.45552 9.70312C3.45552 9.31479 3.77016 9 4.15833 9H5.54051C5.92864 9 6.24333 9.31479 6.24333 9.70312ZM14.5445 9.70312C14.5445 10.0915 14.2299 10.4062 13.8417 10.4062H12.4595C12.0714 10.4062 11.7567 10.0915 11.7567 9.70312C11.7567 9.31479 12.0714 9 12.4595 9H13.8417C14.2298 9 14.5445 9.31479 14.5445 9.70312ZM10.3899 9.70312C10.3899 10.0915 10.0753 10.4062 9.6871 10.4062H8.30492C7.91676 10.4062 7.60211 10.0915 7.60211 9.70312C7.60211 9.31479 7.91676 9 8.30492 9H9.6871C10.0752 9 10.3899 9.31479 10.3899 9.70312ZM6.24333 13.8516C6.24333 14.2399 5.92868 14.5547 5.54051 14.5547H4.15833C3.77016 14.5547 3.45552 14.2399 3.45552 13.8516C3.45552 13.4632 3.77016 13.1484 4.15833 13.1484H5.54051C5.92864 13.1484 6.24333 13.4632 6.24333 13.8516ZM14.5445 13.8516C14.5445 14.2399 14.2299 14.5547 13.8417 14.5547H12.4595C12.0714 14.5547 11.7567 14.2399 11.7567 13.8516C11.7567 13.4632 12.0714 13.1484 12.4595 13.1484H13.8417C14.2298 13.1484 14.5445 13.4632 14.5445 13.8516ZM10.3899 13.8516C10.3899 14.2399 10.0753 14.5547 9.6871 14.5547H8.30492C7.91676 14.5547 7.60211 14.2399 7.60211 13.8516C7.60211 13.4632 7.91676 13.1484 8.30492 13.1484H9.6871C10.0752 13.1484 10.3899 13.4632 10.3899 13.8516Z" fill="#888888"/>
</svg>
