<?xml version="1.0" standalone="no"?>
<!DOCTYPE svg PUBLIC "-//W3C//DTD SVG 20010904//EN"
 "http://www.w3.org/TR/2001/REC-SVG-20010904/DTD/svg10.dtd">
<svg version="1.0" xmlns="http://www.w3.org/2000/svg"
 width="512.000000pt" height="512.000000pt" viewBox="0 0 512.000000 512.000000"
 preserveAspectRatio="xMidYMid meet">

<g transform="translate(0.000000,512.000000) scale(0.100000,-0.100000)"
fill="#000000" stroke="none">
<path d="M970 4785 c-337 -68 -587 -328 -639 -665 -9 -56 -11 -473 -9 -1605 3
-1395 5 -1535 20 -1585 33 -109 60 -170 108 -243 113 -174 269 -285 485 -345
55 -16 195 -17 1625 -17 1430 0 1570 1 1625 17 106 29 172 58 248 108 174 113
285 269 345 485 15 54 17 145 17 872 0 804 0 812 -21 839 -39 53 -71 69 -134
69 -63 0 -95 -16 -134 -69 -21 -27 -21 -39 -26 -829 -5 -792 -5 -803 -27 -854
-66 -163 -181 -267 -340 -308 -49 -13 -259 -15 -1553 -15 -1311 0 -1503 2
-1555 15 -172 45 -305 179 -350 352 -23 86 -23 3020 0 3106 41 159 145 274
308 340 51 22 62 22 854 27 790 5 802 5 829 26 53 39 69 71 69 134 0 63 -16
95 -69 134 -27 21 -36 21 -819 23 -623 1 -806 -2 -857 -12z"/>
<path d="M3455 4786 c-94 -41 -124 -168 -58 -247 49 -58 56 -59 475 -59 l383
0 -922 -922 c-1002 -1003 -946 -941 -928 -1035 9 -49 69 -109 118 -118 94 -18
32 -74 1034 928 l922 921 3 -396 c3 -383 4 -398 24 -424 39 -53 71 -69 134
-69 63 0 95 16 134 69 21 27 21 37 21 646 0 609 0 619 -21 646 -11 15 -33 37
-48 48 -27 21 -39 21 -634 23 -489 2 -613 0 -637 -11z"/>
</g>
</svg>
