<svg xmlns="http://www.w3.org/2000/svg" version="1.1" xmlns:xlink="http://www.w3.org/1999/xlink"
     xmlns:svgjs="http://svgjs.com/svgjs" width="18" height="18" x="0" y="0" viewBox="0 0 448.005 448.005"
     style="enable-background:new 0 0 512 512" xml:space="preserve" class=""><g><path d="M441.75 6.258c-8.344-8.344-21.824-8.344-30.164 0L256 161.84l-48.918-48.918c-6.121-6.102-15.273-7.977-23.254-4.629-7.957 3.285-13.16 11.094-13.16 19.71v128c0 11.798 9.555 21.337 21.332 21.337h128a21.329 21.329 0 0 0 15.082-36.418l-48.918-48.918L441.75 36.422c8.34-8.344 8.34-21.824 0-30.164zm0 0" fill="#000000" data-original="#000000" class=""></path><path
        d="M362.668 448.004H64c-35.285 0-64-28.715-64-64V85.34c0-35.285 28.715-64 64-64h170.668c11.773 0 21.332 9.535 21.332 21.332s-9.559 21.332-21.332 21.332H64c-11.754 0-21.332 9.558-21.332 21.336v298.664c0 11.777 9.578 21.336 21.332 21.336h298.668c11.754 0 21.332-9.559 21.332-21.336V213.34c0-11.797 9.559-21.336 21.332-21.336 11.777 0 21.336 9.539 21.336 21.336v170.664c0 35.285-28.715 64-64 64zm0 0"
        fill="#000000" data-original="#000000" class=""></path></g></svg>