<svg width="18" height="18" viewBox="0 0 18 18" fill="none" xmlns="http://www.w3.org/2000/svg">
<path d="M2.53125 1.6875C2.99707 1.6875 3.375 2.06543 3.375 2.53125V4.21875C3.375 4.68633 2.99707 5.0625 2.53125 5.0625V8.15625H4.5C4.5 7.68867 4.87617 7.3125 5.34375 7.3125H7.03125C7.49883 7.3125 7.875 7.68867 7.875 8.15625V9.84375C7.875 10.3113 7.49883 10.6875 7.03125 10.6875H5.34375C4.87617 10.6875 4.5 10.3113 4.5 9.84375H2.53125V13.5C2.53125 13.6547 2.65711 13.7812 2.8125 13.7812H4.5C4.5 13.3137 4.87617 12.9375 5.34375 12.9375H7.03125C7.49883 12.9375 7.875 13.3137 7.875 13.7812V15.4688C7.875 15.9363 7.49883 16.3125 7.03125 16.3125H5.34375C4.87617 16.3125 4.5 15.9363 4.5 15.4688H2.8125C1.72512 15.4688 0.84375 14.5863 0.84375 13.5V5.0625C0.37793 5.0625 0 4.68633 0 4.21875V2.53125C0 2.06543 0.37793 1.6875 0.84375 1.6875H2.53125ZM5.625 3.375C5.625 2.90918 6.00117 2.53125 6.46875 2.53125H17.1562C17.6238 2.53125 18 2.90918 18 3.375C18 3.84258 17.6238 4.21875 17.1562 4.21875H6.46875C6.00117 4.21875 5.625 3.84258 5.625 3.375ZM10.125 9C10.125 8.53242 10.5012 8.15625 10.9688 8.15625H17.1562C17.6238 8.15625 18 8.53242 18 9C18 9.46758 17.6238 9.84375 17.1562 9.84375H10.9688C10.5012 9.84375 10.125 9.46758 10.125 9ZM10.125 14.625C10.125 14.1574 10.5012 13.7812 10.9688 13.7812H17.1562C17.6238 13.7812 18 14.1574 18 14.625C18 15.0926 17.6238 15.4688 17.1562 15.4688H10.9688C10.5012 15.4688 10.125 15.0926 10.125 14.625Z" fill="#31B404"/>
</svg>
