<svg width="19" height="16" viewBox="0 0 19 16" fill="none" xmlns="http://www.w3.org/2000/svg">
<path d="M18.0649 14.8051H5.53118C5.40836 14.8051 5.28674 14.7809 5.17327 14.7339C5.0598 14.6869 4.95669 14.618 4.86985 14.5312C4.783 14.4443 4.71411 14.3412 4.66711 14.2278C4.62011 14.1143 4.59592 13.9927 4.59592 13.8699C4.59592 13.747 4.62011 13.6254 4.66711 13.5119C4.71411 13.3985 4.783 13.2954 4.86985 13.2085C4.95669 13.1217 5.0598 13.0528 5.17327 13.0058C5.28674 12.9588 5.40836 12.9346 5.53118 12.9346H18.0646C18.3126 12.9346 18.5505 13.0331 18.726 13.2084C18.9014 13.3838 19 13.6217 19 13.8697C19 14.1177 18.9015 14.3557 18.7262 14.5311C18.5508 14.7065 18.3129 14.8051 18.0649 14.8051ZM18.0649 8.9345H5.53118C5.28313 8.9345 5.04524 8.83596 4.86985 8.66057C4.69445 8.48517 4.59592 8.24728 4.59592 7.99924C4.59592 7.75119 4.69445 7.51331 4.86985 7.33791C5.04524 7.16252 5.28313 7.06398 5.53118 7.06398H18.0646C18.3126 7.06394 18.5505 7.16243 18.726 7.3378C18.9014 7.51317 19 7.75104 19 7.99908C19 8.24713 18.9015 8.48503 18.7262 8.66046C18.5508 8.83588 18.3129 8.93446 18.0649 8.9345ZM18.0649 3.06388H5.53118C5.40836 3.06388 5.28674 3.03969 5.17327 2.99268C5.0598 2.94568 4.95669 2.87679 4.86985 2.78995C4.783 2.7031 4.71411 2.6 4.66711 2.48653C4.62011 2.37306 4.59592 2.25144 4.59592 2.12862C4.59592 2.0058 4.62011 1.88418 4.66711 1.77071C4.71411 1.65724 4.783 1.55414 4.86985 1.46729C4.95669 1.38044 5.0598 1.31155 5.17327 1.26455C5.28674 1.21755 5.40836 1.19336 5.53118 1.19336H18.0646C18.3126 1.19332 18.5505 1.29181 18.726 1.46718C18.9014 1.64255 19 1.88042 19 2.12846C19 2.37651 18.9015 2.61441 18.7262 2.78984C18.5508 2.96526 18.3129 3.06384 18.0649 3.06388Z" fill="#888888"/>
<path d="M1.51237 3.45742C2.20607 3.45742 2.76842 2.89506 2.76842 2.20137C2.76842 1.50767 2.20607 0.945312 1.51237 0.945312C0.818671 0.945312 0.256317 1.50767 0.256317 2.20137C0.256317 2.89506 0.818671 3.45742 1.51237 3.45742Z" fill="#888888"/>
<path d="M1.51237 9.25429C2.20607 9.25429 2.76842 8.69194 2.76842 7.99824C2.76842 7.30454 2.20607 6.74219 1.51237 6.74219C0.818671 6.74219 0.256317 7.30454 0.256317 7.99824C0.256317 8.69194 0.818671 9.25429 1.51237 9.25429Z" fill="#888888"/>
<path d="M1.51237 15.0551C2.20607 15.0551 2.76842 14.4927 2.76842 13.799C2.76842 13.1053 2.20607 12.543 1.51237 12.543C0.818671 12.543 0.256317 13.1053 0.256317 13.799C0.256317 14.4927 0.818671 15.0551 1.51237 15.0551Z" fill="#888888"/>
</svg>
