<svg width="40" height="40" viewBox="0 0 496 496" fill="none" xmlns="http://www.w3.org/2000/svg">
<path d="M286.75 180.19H240.83V334H288.3C355.92 334 371.42 282.66 371.42 257.09C371.42 215.45 344.88 180.19 286.75 180.19ZM248 0C111 0 0 111 0 248C0 385 111 496 248 496C385 496 496 385 496 248C496 111 385 0 248 0ZM167.21 360.76H137.37V153.26H167.21V360.76ZM152.29 129.62C148.419 129.62 144.636 128.472 141.417 126.322C138.199 124.171 135.691 121.115 134.21 117.539C132.728 113.963 132.341 110.028 133.096 106.232C133.851 102.436 135.715 98.9488 138.452 96.2119C141.189 93.475 144.676 91.6111 148.472 90.856C152.268 90.1009 156.203 90.4885 159.779 91.9697C163.355 93.4509 166.411 95.9592 168.562 99.1775C170.712 102.396 171.86 106.179 171.86 110.05C171.842 115.235 169.774 120.202 166.108 123.868C162.442 127.534 157.475 129.602 152.29 129.62ZM292 361H211V153.26H291.6C368.33 153.26 402.04 208.09 402.04 257.11C402 310.39 360.38 361 292 361Z" fill="#C0C0C0"/>
</svg>
