<svg  width="20" height="20" viewBox="0 0 8 8" fill="none" xmlns="http://www.w3.org/2000/svg">
<path d="M0.703125 3.29688H3.29688V0.703125C3.29688 0.314797 3.61167 0 4 0C4.38833 0 4.70312 0.314797 4.70312 0.703125V3.29688H7.29688C7.6852 3.29688 8 3.61167 8 4C8 4.38833 7.6852 4.70312 7.29688 4.70312H4.70312V7.29688C4.70312 7.6852 4.38833 8 4 8C3.61167 8 3.29688 7.6852 3.29688 7.29688V4.70312H0.703125C0.314797 4.70312 0 4.38833 0 4C0 3.61167 0.314797 3.29688 0.703125 3.29688Z" fill="var(--primary-color)"/>
</svg>
