<?xml version="1.0" encoding="utf-8"?>
<!-- Svg Vector Icons : http://www.onlinewebfonts.com/icon -->
<!DOCTYPE svg PUBLIC "-//W3C//DTD SVG 1.1//EN" "http://www.w3.org/Graphics/SVG/1.1/DTD/svg11.dtd">
<svg version="1.1" xmlns="http://www.w3.org/2000/svg" xmlns:xlink="http://www.w3.org/1999/xlink" x="0px" y="0px"
     viewBox="0 0 256 256" enable-background="new 0 0 256 256" xml:space="preserve">
<metadata> Svg Vector Icons : http://www.onlinewebfonts.com/icon </metadata>
    <g><g><g><path fill="#000000" d="M101.2,111.6c5.6-13.4,15.4-25.1,28.9-32.9c10.4-6,22.3-9.2,34.3-9.2c10,0,19.7,2.3,28.5,6.3V43.9c0-18.7-38-33.9-84.8-33.9c-46.8,0-84.8,15.2-84.8,33.9v33.9C23.2,95.7,57.5,110.3,101.2,111.6z M108,18.5c46.6,0,76.3,15.1,76.3,25.4c0,10.4-29.7,25.4-76.3,25.4S31.7,54.3,31.7,43.9C31.7,33.6,61.4,18.5,108,18.5z M23.2,128.7V94.8c0,17.2,31.9,31.3,73.3,33.6c-1.6,11.3-0.5,23,3.7,34.1C57,160.9,23.2,146.4,23.2,128.7z M159.3,206.6c-14.3,4.3-32,7-51.3,7c-46.8,0-84.8-15.2-84.8-33.9v-33.9c0,18.8,38,33.9,84.8,33.9c0.5,0,1.1,0,1.6,0C121.4,195.2,139.6,205.1,159.3,206.6z M215.5,108.8c-16.3-28.2-52.4-37.8-80.5-21.6c-28.2,16.3-37.8,52.4-21.6,80.5c16.3,28.2,52.4,37.8,80.5,21.6C222,173,231.7,136.9,215.5,108.8z M121.8,162.8c-13.6-23.5-5.5-53.6,18-67.2c23.5-13.6,53.6-5.5,67.2,18c13.6,23.5,5.5,53.6-18,67.2C165.5,194.4,135.4,186.3,121.8,162.8z M228.2,219.5l-25.4,14.6l-19.5-33.8l25.4-14.6L228.2,219.5z M225.5,244c-7,4-16,1.7-20-5.4l25.4-14.6C234.9,231.1,232.5,240,225.5,244z"/></g><g></g><g></g><g></g><g></g><g></g><g></g><g></g><g></g><g></g><g></g><g></g><g></g><g></g><g></g><g></g></g></g>
</svg>